<svg id="visual" viewBox="0 0 900 900" width="900" height="900" xmlns="http://www.w3.org/2000/svg" xmlns:xlink="http://www.w3.org/1999/xlink" version="1.1"><rect x="0" y="0" width="900" height="900" fill="#0b1822"></rect><defs><linearGradient id="grad1_0" x1="0%" y1="0%" x2="100%" y2="100%"><stop offset="30%" stop-color="#634373" stop-opacity="1"></stop><stop offset="70%" stop-color="#634373" stop-opacity="1"></stop></linearGradient></defs><defs><linearGradient id="grad1_1" x1="0%" y1="0%" x2="100%" y2="100%"><stop offset="30%" stop-color="#634373" stop-opacity="1"></stop><stop offset="70%" stop-color="#503e6a" stop-opacity="1"></stop></linearGradient></defs><defs><linearGradient id="grad1_2" x1="0%" y1="0%" x2="100%" y2="100%"><stop offset="30%" stop-color="#3f3960" stop-opacity="1"></stop><stop offset="70%" stop-color="#503e6a" stop-opacity="1"></stop></linearGradient></defs><defs><linearGradient id="grad1_3" x1="0%" y1="0%" x2="100%" y2="100%"><stop offset="30%" stop-color="#3f3960" stop-opacity="1"></stop><stop offset="70%" stop-color="#303355" stop-opacity="1"></stop></linearGradient></defs><defs><linearGradient id="grad1_4" x1="0%" y1="0%" x2="100%" y2="100%"><stop offset="30%" stop-color="#222d48" stop-opacity="1"></stop><stop offset="70%" stop-color="#303355" stop-opacity="1"></stop></linearGradient></defs><defs><linearGradient id="grad1_5" x1="0%" y1="0%" x2="100%" y2="100%"><stop offset="30%" stop-color="#222d48" stop-opacity="1"></stop><stop offset="70%" stop-color="#18263c" stop-opacity="1"></stop></linearGradient></defs><defs><linearGradient id="grad1_6" x1="0%" y1="0%" x2="100%" y2="100%"><stop offset="30%" stop-color="#101f2f" stop-opacity="1"></stop><stop offset="70%" stop-color="#18263c" stop-opacity="1"></stop></linearGradient></defs><defs><linearGradient id="grad1_7" x1="0%" y1="0%" x2="100%" y2="100%"><stop offset="30%" stop-color="#101f2f" stop-opacity="1"></stop><stop offset="70%" stop-color="#0b1822" stop-opacity="1"></stop></linearGradient></defs><defs><linearGradient id="grad2_0" x1="0%" y1="0%" x2="100%" y2="100%"><stop offset="30%" stop-color="#634373" stop-opacity="1"></stop><stop offset="70%" stop-color="#634373" stop-opacity="1"></stop></linearGradient></defs><defs><linearGradient id="grad2_1" x1="0%" y1="0%" x2="100%" y2="100%"><stop offset="30%" stop-color="#503e6a" stop-opacity="1"></stop><stop offset="70%" stop-color="#634373" stop-opacity="1"></stop></linearGradient></defs><defs><linearGradient id="grad2_2" x1="0%" y1="0%" x2="100%" y2="100%"><stop offset="30%" stop-color="#503e6a" stop-opacity="1"></stop><stop offset="70%" stop-color="#3f3960" stop-opacity="1"></stop></linearGradient></defs><defs><linearGradient id="grad2_3" x1="0%" y1="0%" x2="100%" y2="100%"><stop offset="30%" stop-color="#303355" stop-opacity="1"></stop><stop offset="70%" stop-color="#3f3960" stop-opacity="1"></stop></linearGradient></defs><defs><linearGradient id="grad2_4" x1="0%" y1="0%" x2="100%" y2="100%"><stop offset="30%" stop-color="#303355" stop-opacity="1"></stop><stop offset="70%" stop-color="#222d48" stop-opacity="1"></stop></linearGradient></defs><defs><linearGradient id="grad2_5" x1="0%" y1="0%" x2="100%" y2="100%"><stop offset="30%" stop-color="#18263c" stop-opacity="1"></stop><stop offset="70%" stop-color="#222d48" stop-opacity="1"></stop></linearGradient></defs><defs><linearGradient id="grad2_6" x1="0%" y1="0%" x2="100%" y2="100%"><stop offset="30%" stop-color="#18263c" stop-opacity="1"></stop><stop offset="70%" stop-color="#101f2f" stop-opacity="1"></stop></linearGradient></defs><defs><linearGradient id="grad2_7" x1="0%" y1="0%" x2="100%" y2="100%"><stop offset="30%" stop-color="#0b1822" stop-opacity="1"></stop><stop offset="70%" stop-color="#101f2f" stop-opacity="1"></stop></linearGradient></defs><g transform="translate(900, 0)"><path d="M0 373C-28.5 340.7 -57 308.4 -98.9 304.3C-140.8 300.3 -196 324.6 -224.4 308.9C-252.9 293.2 -254.6 237.5 -275.1 199.8C-295.6 162.2 -334.9 142.5 -345.2 112.2C-355.5 81.9 -336.8 40.9 -318 0L0 0Z" fill="#0d1c28"></path><path d="M0 326.4C-24.9 298.1 -49.9 269.8 -86.5 266.3C-123.2 262.8 -171.5 284 -196.4 270.3C-221.3 256.6 -222.7 207.8 -240.7 174.9C-258.6 141.9 -293.1 124.7 -302.1 98.2C-311.1 71.6 -294.7 35.8 -278.2 0L0 0Z" fill="#142335"></path><path d="M0 279.8C-21.4 255.5 -42.8 231.3 -74.2 228.3C-105.6 225.2 -147 243.5 -168.3 231.7C-189.7 219.9 -190.9 178.1 -206.3 149.9C-221.7 121.6 -251.2 106.9 -258.9 84.1C-266.6 61.4 -252.6 30.7 -238.5 0L0 0Z" fill="#1d2a42"></path><path d="M0 233.1C-17.8 212.9 -35.6 192.7 -61.8 190.2C-88 187.7 -122.5 202.9 -140.3 193.1C-158.1 183.3 -159.1 148.5 -171.9 124.9C-184.7 101.4 -209.3 89.1 -215.8 70.1C-222.2 51.2 -210.5 25.6 -198.7 0L0 0Z" fill="#29304f"></path><path d="M0 186.5C-14.3 170.3 -28.5 154.2 -49.4 152.2C-70.4 150.2 -98 162.3 -112.2 154.5C-126.4 146.6 -127.3 118.8 -137.5 99.9C-147.8 81.1 -167.5 71.2 -172.6 56.1C-177.8 40.9 -168.4 20.5 -159 0L0 0Z" fill="#37365b"></path><path d="M0 139.9C-10.7 127.8 -21.4 115.6 -37.1 114.1C-52.8 112.6 -73.5 121.7 -84.2 115.8C-94.8 110 -95.5 89.1 -103.1 74.9C-110.8 60.8 -125.6 53.4 -129.5 42.1C-133.3 30.7 -126.3 15.3 -119.2 0L0 0Z" fill="#473c65"></path><path d="M0 93.3C-7.1 85.2 -14.3 77.1 -24.7 76.1C-35.2 75.1 -49 81.2 -56.1 77.2C-63.2 73.3 -63.6 59.4 -68.8 50C-73.9 40.5 -83.7 35.6 -86.3 28C-88.9 20.5 -84.2 10.2 -79.5 0L0 0Z" fill="#59416f"></path><path d="M0 46.6C-3.6 42.6 -7.1 38.5 -12.4 38C-17.6 37.5 -24.5 40.6 -28.1 38.6C-31.6 36.7 -31.8 29.7 -34.4 25C-36.9 20.3 -41.9 17.8 -43.2 14C-44.4 10.2 -42.1 5.1 -39.7 0L0 0Z" fill="#634373"></path></g><g transform="translate(0, 900)"><path d="M0 -340C42.6 -355 85.2 -370 114.6 -352.8C144.1 -335.7 160.3 -286.4 188.7 -259.7C217.1 -233 257.6 -228.8 286.4 -208.1C315.2 -187.3 332.2 -149.9 346.2 -112.5C360.1 -75 371 -37.5 381.8 0L0 0Z" fill="#0d1c28"></path><path d="M0 -297.5C37.3 -310.6 74.6 -323.7 100.3 -308.7C126.1 -293.7 140.3 -250.6 165.1 -227.2C189.9 -203.9 225.4 -200.2 250.6 -182.1C275.8 -163.9 290.7 -131.2 302.9 -98.4C315.1 -65.7 324.6 -32.8 334.1 0L0 0Z" fill="#142335"></path><path d="M0 -255C32 -266.2 63.9 -277.5 86 -264.6C108 -251.8 120.2 -214.8 141.5 -194.8C162.8 -174.7 193.2 -171.6 214.8 -156.1C236.4 -140.5 249.2 -112.4 259.6 -84.4C270.1 -56.3 278.2 -28.1 286.4 0L0 0Z" fill="#1d2a42"></path><path d="M0 -212.5C26.6 -221.9 53.3 -231.2 71.7 -220.5C90 -209.8 100.2 -179 117.9 -162.3C135.7 -145.6 161 -143 179 -130C197 -117.1 207.6 -93.7 216.4 -70.3C225.1 -46.9 231.9 -23.4 238.6 0L0 0Z" fill="#29304f"></path><path d="M0 -170C21.3 -177.5 42.6 -185 57.3 -176.4C72 -167.8 80.1 -143.2 94.3 -129.8C108.5 -116.5 128.8 -114.4 143.2 -104C157.6 -93.7 166.1 -75 173.1 -56.2C180.1 -37.5 185.5 -18.8 190.9 0L0 0Z" fill="#37365b"></path><path d="M0 -127.5C16 -133.1 32 -138.7 43 -132.3C54 -125.9 60.1 -107.4 70.8 -97.4C81.4 -87.4 96.6 -85.8 107.4 -78C118.2 -70.2 124.6 -56.2 129.8 -42.2C135.1 -28.1 139.1 -14.1 143.2 0L0 0Z" fill="#473c65"></path><path d="M0 -85C10.7 -88.7 21.3 -92.5 28.7 -88.2C36 -83.9 40.1 -71.6 47.2 -64.9C54.3 -58.2 64.4 -57.2 71.6 -52C78.8 -46.8 83.1 -37.5 86.5 -28.1C90 -18.8 92.7 -9.4 95.5 0L0 0Z" fill="#59416f"></path><path d="M0 -42.5C5.3 -44.4 10.7 -46.2 14.3 -44.1C18 -42 20 -35.8 23.6 -32.5C27.1 -29.1 32.2 -28.6 35.8 -26C39.4 -23.4 41.5 -18.7 43.3 -14.1C45 -9.4 46.4 -4.7 47.7 0L0 0Z" fill="#634373"></path></g></svg>