<svg id="visual" viewBox="0 0 1920 1080" width="1920" height="1080" xmlns="http://www.w3.org/2000/svg" xmlns:xlink="http://www.w3.org/1999/xlink" version="1.1"><rect x="0" y="0" width="1920" height="1080" fill="#000000"></rect><defs><linearGradient id="grad1_0" x1="43.8%" y1="100%" x2="100%" y2="0%"><stop offset="14.444444444444446%" stop-color="#1f2d56" stop-opacity="1"></stop><stop offset="85.55555555555554%" stop-color="#1f2d56" stop-opacity="1"></stop></linearGradient></defs><defs><linearGradient id="grad1_1" x1="43.8%" y1="100%" x2="100%" y2="0%"><stop offset="14.444444444444446%" stop-color="#1f2d56" stop-opacity="1"></stop><stop offset="85.55555555555554%" stop-color="#18274f" stop-opacity="1"></stop></linearGradient></defs><defs><linearGradient id="grad1_2" x1="43.8%" y1="100%" x2="100%" y2="0%"><stop offset="14.444444444444446%" stop-color="#102249" stop-opacity="1"></stop><stop offset="85.55555555555554%" stop-color="#18274f" stop-opacity="1"></stop></linearGradient></defs><defs><linearGradient id="grad1_3" x1="43.8%" y1="100%" x2="100%" y2="0%"><stop offset="14.444444444444446%" stop-color="#102249" stop-opacity="1"></stop><stop offset="85.55555555555554%" stop-color="#071c42" stop-opacity="1"></stop></linearGradient></defs><defs><linearGradient id="grad1_4" x1="43.8%" y1="100%" x2="100%" y2="0%"><stop offset="14.444444444444446%" stop-color="#00173c" stop-opacity="1"></stop><stop offset="85.55555555555554%" stop-color="#071c42" stop-opacity="1"></stop></linearGradient></defs><defs><linearGradient id="grad1_5" x1="43.8%" y1="100%" x2="100%" y2="0%"><stop offset="14.444444444444446%" stop-color="#00173c" stop-opacity="1"></stop><stop offset="85.55555555555554%" stop-color="#001036" stop-opacity="1"></stop></linearGradient></defs><defs><linearGradient id="grad1_6" x1="43.8%" y1="100%" x2="100%" y2="0%"><stop offset="14.444444444444446%" stop-color="#000730" stop-opacity="1"></stop><stop offset="85.55555555555554%" stop-color="#001036" stop-opacity="1"></stop></linearGradient></defs><defs><linearGradient id="grad1_7" x1="43.8%" y1="100%" x2="100%" y2="0%"><stop offset="14.444444444444446%" stop-color="#000730" stop-opacity="1"></stop><stop offset="85.55555555555554%" stop-color="#000000" stop-opacity="1"></stop></linearGradient></defs><defs><linearGradient id="grad2_0" x1="0%" y1="100%" x2="56.3%" y2="0%"><stop offset="14.444444444444446%" stop-color="#1f2d56" stop-opacity="1"></stop><stop offset="85.55555555555554%" stop-color="#1f2d56" stop-opacity="1"></stop></linearGradient></defs><defs><linearGradient id="grad2_1" x1="0%" y1="100%" x2="56.3%" y2="0%"><stop offset="14.444444444444446%" stop-color="#18274f" stop-opacity="1"></stop><stop offset="85.55555555555554%" stop-color="#1f2d56" stop-opacity="1"></stop></linearGradient></defs><defs><linearGradient id="grad2_2" x1="0%" y1="100%" x2="56.3%" y2="0%"><stop offset="14.444444444444446%" stop-color="#18274f" stop-opacity="1"></stop><stop offset="85.55555555555554%" stop-color="#102249" stop-opacity="1"></stop></linearGradient></defs><defs><linearGradient id="grad2_3" x1="0%" y1="100%" x2="56.3%" y2="0%"><stop offset="14.444444444444446%" stop-color="#071c42" stop-opacity="1"></stop><stop offset="85.55555555555554%" stop-color="#102249" stop-opacity="1"></stop></linearGradient></defs><defs><linearGradient id="grad2_4" x1="0%" y1="100%" x2="56.3%" y2="0%"><stop offset="14.444444444444446%" stop-color="#071c42" stop-opacity="1"></stop><stop offset="85.55555555555554%" stop-color="#00173c" stop-opacity="1"></stop></linearGradient></defs><defs><linearGradient id="grad2_5" x1="0%" y1="100%" x2="56.3%" y2="0%"><stop offset="14.444444444444446%" stop-color="#001036" stop-opacity="1"></stop><stop offset="85.55555555555554%" stop-color="#00173c" stop-opacity="1"></stop></linearGradient></defs><defs><linearGradient id="grad2_6" x1="0%" y1="100%" x2="56.3%" y2="0%"><stop offset="14.444444444444446%" stop-color="#001036" stop-opacity="1"></stop><stop offset="85.55555555555554%" stop-color="#000730" stop-opacity="1"></stop></linearGradient></defs><defs><linearGradient id="grad2_7" x1="0%" y1="100%" x2="56.3%" y2="0%"><stop offset="14.444444444444446%" stop-color="#000000" stop-opacity="1"></stop><stop offset="85.55555555555554%" stop-color="#000730" stop-opacity="1"></stop></linearGradient></defs><g transform="translate(1920, 1080)"><path d="M-648 0C-646.1 -26.6 -644.1 -53.2 -632.4 -76.8C-620.6 -100.4 -598.9 -120.9 -591.3 -145.7C-583.7 -170.6 -590.1 -199.7 -574.1 -217.7C-558.1 -235.8 -519.8 -242.7 -517.1 -271.4C-514.4 -300.1 -547.5 -350.5 -533.3 -368.1C-519.1 -385.7 -457.6 -370.6 -427.4 -378.6C-397.2 -386.7 -398.1 -418.1 -382.6 -431.9C-367.1 -445.7 -335.2 -442 -318.7 -461.7C-302.1 -481.4 -300.9 -524.4 -283.5 -540.1C-266.1 -555.9 -232.4 -544.4 -205.7 -542.3C-178.9 -540.3 -159.1 -547.7 -139 -564.1C-119 -580.5 -98.7 -606 -75.5 -621.4C-52.2 -636.9 -26.1 -642.5 0 -648L0 0Z" fill="#00012d"></path><path d="M-567 0C-565.3 -23.3 -563.6 -46.6 -553.3 -67.2C-543 -87.8 -524.1 -105.8 -517.4 -127.5C-510.7 -149.3 -516.3 -174.7 -502.3 -190.5C-488.4 -206.3 -454.8 -212.4 -452.5 -237.5C-450.1 -262.6 -479.1 -306.7 -466.6 -322.1C-454.2 -337.5 -400.4 -324.2 -374 -331.3C-347.5 -338.4 -348.3 -365.8 -334.8 -377.9C-321.3 -390 -293.3 -386.8 -278.8 -404C-264.4 -421.2 -263.3 -458.8 -248 -472.6C-232.8 -486.4 -203.4 -476.3 -180 -474.5C-156.6 -472.7 -139.2 -479.2 -121.7 -493.6C-104.1 -508 -86.3 -530.2 -66 -543.8C-45.7 -557.3 -22.9 -562.2 0 -567L0 0Z" fill="#000c33"></path><path d="M-486 0C-484.6 -20 -483.1 -39.9 -474.3 -57.6C-465.4 -75.3 -449.2 -90.7 -443.5 -109.3C-437.8 -127.9 -442.6 -149.8 -430.6 -163.3C-418.6 -176.8 -389.8 -182 -387.8 -203.5C-385.8 -225.1 -410.6 -262.9 -400 -276.1C-389.3 -289.3 -343.2 -277.9 -320.5 -284C-297.9 -290 -298.6 -313.5 -287 -323.9C-275.4 -334.3 -251.4 -331.5 -239 -346.3C-226.6 -361 -225.7 -393.3 -212.6 -405.1C-199.5 -416.9 -174.3 -408.3 -154.3 -406.7C-134.2 -405.2 -119.3 -410.8 -104.3 -423.1C-89.2 -435.4 -74 -454.5 -56.6 -466.1C-39.2 -477.7 -19.6 -481.8 0 -486L0 0Z" fill="#001439"></path><path d="M-405 0C-403.8 -16.6 -402.6 -33.3 -395.2 -48C-387.9 -62.7 -374.3 -75.6 -369.6 -91.1C-364.8 -106.6 -368.8 -124.8 -358.8 -136.1C-348.8 -147.4 -324.9 -151.7 -323.2 -169.6C-321.5 -187.5 -342.2 -219.1 -333.3 -230.1C-324.4 -241.1 -286 -231.6 -267.1 -236.7C-248.2 -241.7 -248.8 -261.3 -239.1 -269.9C-229.5 -278.6 -209.5 -276.3 -199.2 -288.6C-188.8 -300.8 -188.1 -327.7 -177.2 -337.6C-166.3 -347.4 -145.3 -340.2 -128.5 -338.9C-111.8 -337.7 -99.4 -342.3 -86.9 -352.6C-74.4 -362.8 -61.7 -378.7 -47.2 -388.4C-32.7 -398.1 -16.3 -401.5 0 -405L0 0Z" fill="#03193f"></path><path d="M-324 0C-323 -13.3 -322.1 -26.6 -316.2 -38.4C-310.3 -50.2 -299.5 -60.5 -295.7 -72.9C-291.8 -85.3 -295 -99.8 -287 -108.9C-279.1 -117.9 -259.9 -121.4 -258.6 -135.7C-257.2 -150 -273.7 -175.2 -266.6 -184.1C-259.5 -192.9 -228.8 -185.3 -213.7 -189.3C-198.6 -193.4 -199 -209 -191.3 -215.9C-183.6 -222.9 -167.6 -221 -159.3 -230.8C-151.1 -240.7 -150.5 -262.2 -141.7 -270.1C-133 -277.9 -116.2 -272.2 -102.8 -271.2C-89.5 -270.1 -79.6 -273.8 -69.5 -282.1C-59.5 -290.3 -49.3 -303 -37.7 -310.7C-26.1 -318.5 -13.1 -321.2 0 -324L0 0Z" fill="#0c1f46"></path><path d="M-243 0C-242.3 -10 -241.6 -20 -237.1 -28.8C-232.7 -37.6 -224.6 -45.3 -221.7 -54.7C-218.9 -64 -221.3 -74.9 -215.3 -81.6C-209.3 -88.4 -194.9 -91 -193.9 -101.8C-192.9 -112.5 -205.3 -131.4 -200 -138C-194.7 -144.6 -171.6 -139 -160.3 -142C-148.9 -145 -149.3 -156.8 -143.5 -162C-137.7 -167.1 -125.7 -165.8 -119.5 -173.1C-113.3 -180.5 -112.8 -196.6 -106.3 -202.5C-99.8 -208.5 -87.2 -204.1 -77.1 -203.4C-67.1 -202.6 -59.7 -205.4 -52.1 -211.5C-44.6 -217.7 -37 -227.2 -28.3 -233C-19.6 -238.8 -9.8 -240.9 0 -243L0 0Z" fill="#14244c"></path><path d="M-162 0C-161.5 -6.7 -161 -13.3 -158.1 -19.2C-155.1 -25.1 -149.7 -30.2 -147.8 -36.4C-145.9 -42.6 -147.5 -49.9 -143.5 -54.4C-139.5 -58.9 -129.9 -60.7 -129.3 -67.8C-128.6 -75 -136.9 -87.6 -133.3 -92C-129.8 -96.4 -114.4 -92.6 -106.8 -94.7C-99.3 -96.7 -99.5 -104.5 -95.7 -108C-91.8 -111.4 -83.8 -110.5 -79.7 -115.4C-75.5 -120.3 -75.2 -131.1 -70.9 -135C-66.5 -139 -58.1 -136.1 -51.4 -135.6C-44.7 -135.1 -39.8 -136.9 -34.8 -141C-29.7 -145.1 -24.7 -151.5 -18.9 -155.4C-13.1 -159.2 -6.5 -160.6 0 -162L0 0Z" fill="#1b2a53"></path><path d="M-81 0C-80.8 -3.3 -80.5 -6.7 -79 -9.6C-77.6 -12.5 -74.9 -15.1 -73.9 -18.2C-73 -21.3 -73.8 -25 -71.8 -27.2C-69.8 -29.5 -65 -30.3 -64.6 -33.9C-64.3 -37.5 -68.4 -43.8 -66.7 -46C-64.9 -48.2 -57.2 -46.3 -53.4 -47.3C-49.6 -48.3 -49.8 -52.3 -47.8 -54C-45.9 -55.7 -41.9 -55.3 -39.8 -57.7C-37.8 -60.2 -37.6 -65.5 -35.4 -67.5C-33.3 -69.5 -29.1 -68 -25.7 -67.8C-22.4 -67.5 -19.9 -68.5 -17.4 -70.5C-14.9 -72.6 -12.3 -75.7 -9.4 -77.7C-6.5 -79.6 -3.3 -80.3 0 -81L0 0Z" fill="#1f2d56"></path></g><g transform="translate(0, 0)"><path d="M648 0C608.7 22.1 569.5 44.3 560.9 68.1C552.3 92 574.3 117.5 582.6 143.6C590.8 169.6 585.4 196.2 569.4 216C553.5 235.7 527 248.7 518.9 272.3C510.8 296 521.1 330.3 513.5 354.5C506 378.7 480.6 392.7 457.3 405.2C434.1 417.6 413.1 428.4 399.9 451.4C386.7 474.3 381.3 509.2 364.7 528.4C348.1 547.5 320.1 550.7 297.4 566.7C274.7 582.7 257.3 611.4 229.8 605.9C202.3 600.3 164.8 560.5 138.6 562.2C112.4 563.9 97.5 607.2 76.3 628.4C55.1 649.6 27.5 648.8 0 648L0 0Z" fill="#00012d"></path><path d="M567 0C532.7 19.4 498.3 38.7 490.8 59.6C483.2 80.5 502.5 102.8 509.7 125.6C517 148.4 512.2 171.7 498.2 189C484.3 206.2 461.1 217.6 454 238.3C446.9 259 456 289 449.3 310.2C442.7 331.3 420.5 343.6 400.2 354.5C379.8 365.4 361.4 374.9 349.9 394.9C338.3 415 333.7 445.6 319.1 462.3C304.6 479 280.1 481.9 260.2 495.9C240.4 509.9 225.1 535 201.1 530.2C177 525.3 144.2 490.4 121.2 491.9C98.3 493.4 85.3 531.3 66.8 549.8C48.2 568.4 24.1 567.7 0 567L0 0Z" fill="#000c33"></path><path d="M486 0C456.6 16.6 427.1 33.2 420.7 51.1C414.2 69 430.7 88.1 436.9 107.7C443.1 127.2 439 147.1 427.1 162C415.1 176.8 395.2 186.5 389.2 204.2C383.1 222 390.8 247.7 385.2 265.9C379.5 284 360.4 294.5 343 303.9C325.6 313.2 309.8 321.3 299.9 338.5C290 355.7 286 381.9 273.5 396.3C261 410.6 240.1 413 223.1 425C206 437 193 458.6 172.3 454.4C151.7 450.3 123.6 420.4 103.9 421.6C84.3 422.9 73.1 455.4 57.2 471.3C41.3 487.2 20.7 486.6 0 486L0 0Z" fill="#001439"></path><path d="M405 0C380.5 13.8 355.9 27.7 350.6 42.6C345.2 57.5 358.9 73.5 364.1 89.7C369.3 106 365.9 122.6 355.9 135C345.9 147.3 329.4 155.4 324.3 170.2C319.2 185 325.7 206.4 321 221.5C316.2 236.7 300.4 245.5 285.8 253.2C271.3 261 258.2 267.8 249.9 282.1C241.7 296.4 238.3 318.3 227.9 330.2C217.5 342.2 200.1 344.2 185.9 354.2C171.7 364.2 160.8 382.2 143.6 378.7C126.4 375.2 103 350.3 86.6 351.4C70.2 352.4 60.9 379.5 47.7 392.7C34.4 406 17.2 405.5 0 405L0 0Z" fill="#03193f"></path><path d="M324 0C304.4 11.1 284.7 22.1 280.4 34.1C276.1 46 287.1 58.8 291.3 71.8C295.4 84.8 292.7 98.1 284.7 108C276.7 117.9 263.5 124.3 259.4 136.2C255.4 148 260.5 165.1 256.8 177.2C253 189.3 240.3 196.4 228.7 202.6C217.1 208.8 206.5 214.2 199.9 225.7C193.3 237.1 190.7 254.6 182.3 264.2C174 273.7 160.1 275.3 148.7 283.3C137.4 291.3 128.6 305.7 114.9 302.9C101.1 300.2 82.4 280.2 69.3 281.1C56.2 281.9 48.8 303.6 38.1 314.2C27.5 324.8 13.8 324.4 0 324L0 0Z" fill="#0c1f46"></path><path d="M243 0C228.3 8.3 213.6 16.6 210.3 25.5C207.1 34.5 215.4 44.1 218.5 53.8C221.6 63.6 219.5 73.6 213.5 81C207.5 88.4 197.6 93.3 194.6 102.1C191.5 111 195.4 123.9 192.6 132.9C189.7 142 180.2 147.3 171.5 151.9C162.8 156.6 154.9 160.7 149.9 169.3C145 177.8 143 191 136.8 198.1C130.5 205.3 120 206.5 111.5 212.5C103 218.5 96.5 229.3 86.2 227.2C75.9 225.1 61.8 210.2 52 210.8C42.1 211.5 36.6 227.7 28.6 235.6C20.7 243.6 10.3 243.3 0 243L0 0Z" fill="#14244c"></path><path d="M162 0C152.2 5.5 142.4 11.1 140.2 17C138.1 23 143.6 29.4 145.6 35.9C147.7 42.4 146.3 49 142.4 54C138.4 58.9 131.7 62.2 129.7 68.1C127.7 74 130.3 82.6 128.4 88.6C126.5 94.7 120.1 98.2 114.3 101.3C108.5 104.4 103.3 107.1 100 112.8C96.7 118.6 95.3 127.3 91.2 132.1C87 136.9 80 137.7 74.4 141.7C68.7 145.7 64.3 152.9 57.4 151.5C50.6 150.1 41.2 140.1 34.6 140.5C28.1 141 24.4 151.8 19.1 157.1C13.8 162.4 6.9 162.2 0 162L0 0Z" fill="#1b2a53"></path><path d="M81 0C76.1 2.8 71.2 5.5 70.1 8.5C69 11.5 71.8 14.7 72.8 17.9C73.9 21.2 73.2 24.5 71.2 27C69.2 29.5 65.9 31.1 64.9 34C63.8 37 65.1 41.3 64.2 44.3C63.2 47.3 60.1 49.1 57.2 50.6C54.3 52.2 51.6 53.6 50 56.4C48.3 59.3 47.7 63.7 45.6 66C43.5 68.4 40 68.8 37.2 70.8C34.3 72.8 32.2 76.4 28.7 75.7C25.3 75 20.6 70.1 17.3 70.3C14 70.5 12.2 75.9 9.5 78.5C6.9 81.2 3.4 81.1 0 81L0 0Z" fill="#1f2d56"></path></g></svg>