<svg id="visual" viewBox="0 0 900 450" width="900" height="450" xmlns="http://www.w3.org/2000/svg" xmlns:xlink="http://www.w3.org/1999/xlink" version="1.1"><g stroke-width="1" stroke-linejoin="bevel"><path d="M450 192.9L385.7 192.9L385.7 257.1Z" fill="#3896cf" stroke="#2f2f2f"></path><path d="M385.7 257.1L450 257.1L450 192.9Z" fill="#0f4362" stroke="#2f2f2f"></path><path d="M385.7 257.1L385.7 321.4L450 257.1Z" fill="#3896cf" stroke="#2f2f2f"></path><path d="M385.7 321.4L450 321.4L450 257.1Z" fill="#2b79a9" stroke="#2f2f2f"></path><path d="M450 192.9L385.7 128.6L385.7 192.9Z" fill="#46b4f6" stroke="#2f2f2f"></path><path d="M385.7 128.6L321.4 192.9L385.7 192.9Z" fill="#3287bc" stroke="#2f2f2f"></path><path d="M385.7 192.9L321.4 192.9L385.7 257.1Z" fill="#3287bc" stroke="#2f2f2f"></path><path d="M385.7 257.1L321.4 257.1L385.7 321.4Z" fill="#165073" stroke="#2f2f2f"></path><path d="M450 257.1L514.3 192.9L450 192.9Z" fill="#083651" stroke="#2f2f2f"></path><path d="M450 192.9L450 128.6L385.7 128.6Z" fill="#165073" stroke="#2f2f2f"></path><path d="M514.3 257.1L514.3 192.9L450 257.1Z" fill="#3896cf" stroke="#2f2f2f"></path><path d="M450 321.4L514.3 257.1L450 257.1Z" fill="#2b79a9" stroke="#2f2f2f"></path><path d="M321.4 192.9L321.4 257.1L385.7 257.1Z" fill="#032a41" stroke="#2f2f2f"></path><path d="M514.3 192.9L450 128.6L450 192.9Z" fill="#2b79a9" stroke="#2f2f2f"></path><path d="M450 321.4L514.3 321.4L514.3 257.1Z" fill="#165073" stroke="#2f2f2f"></path><path d="M321.4 257.1L321.4 321.4L385.7 321.4Z" fill="#165073" stroke="#2f2f2f"></path><path d="M385.7 128.6L321.4 128.6L321.4 192.9Z" fill="#3287bc" stroke="#2f2f2f"></path><path d="M514.3 192.9L514.3 128.6L450 128.6Z" fill="#46b4f6" stroke="#2f2f2f"></path><path d="M321.4 128.6L257.1 192.9L321.4 192.9Z" fill="#083651" stroke="#2f2f2f"></path><path d="M321.4 192.9L257.1 192.9L321.4 257.1Z" fill="#083651" stroke="#2f2f2f"></path><path d="M321.4 257.1L257.1 257.1L321.4 321.4Z" fill="#165073" stroke="#2f2f2f"></path><path d="M450 128.6L385.7 64.3L385.7 128.6Z" fill="#3896cf" stroke="#2f2f2f"></path><path d="M385.7 128.6L385.7 64.3L321.4 128.6Z" fill="#246b97" stroke="#2f2f2f"></path><path d="M450 64.3L385.7 64.3L450 128.6Z" fill="#0f4362" stroke="#2f2f2f"></path><path d="M257.1 192.9L257.1 257.1L321.4 257.1Z" fill="#246b97" stroke="#2f2f2f"></path><path d="M514.3 128.6L450 64.3L450 128.6Z" fill="#0f4362" stroke="#2f2f2f"></path><path d="M321.4 321.4L385.7 385.7L385.7 321.4Z" fill="#46b4f6" stroke="#2f2f2f"></path><path d="M385.7 321.4L385.7 385.7L450 321.4Z" fill="#1d5d85" stroke="#2f2f2f"></path><path d="M450 321.4L450 385.7L514.3 321.4Z" fill="#246b97" stroke="#2f2f2f"></path><path d="M385.7 385.7L450 385.7L450 321.4Z" fill="#165073" stroke="#2f2f2f"></path><path d="M578.6 321.4L578.6 257.1L514.3 321.4Z" fill="#46b4f6" stroke="#2f2f2f"></path><path d="M514.3 321.4L578.6 257.1L514.3 257.1Z" fill="#246b97" stroke="#2f2f2f"></path><path d="M514.3 257.1L578.6 257.1L514.3 192.9Z" fill="#3fa5e2" stroke="#2f2f2f"></path><path d="M514.3 192.9L578.6 192.9L514.3 128.6Z" fill="#032a41" stroke="#2f2f2f"></path><path d="M578.6 257.1L578.6 192.9L514.3 192.9Z" fill="#032a41" stroke="#2f2f2f"></path><path d="M385.7 64.3L321.4 64.3L321.4 128.6Z" fill="#3fa5e2" stroke="#2f2f2f"></path><path d="M321.4 128.6L257.1 128.6L257.1 192.9Z" fill="#3287bc" stroke="#2f2f2f"></path><path d="M514.3 128.6L514.3 64.3L450 64.3Z" fill="#165073" stroke="#2f2f2f"></path><path d="M578.6 128.6L514.3 64.3L514.3 128.6Z" fill="#083651" stroke="#2f2f2f"></path><path d="M257.1 257.1L257.1 321.4L321.4 321.4Z" fill="#3896cf" stroke="#2f2f2f"></path><path d="M321.4 321.4L321.4 385.7L385.7 385.7Z" fill="#3896cf" stroke="#2f2f2f"></path><path d="M321.4 64.3L257.1 128.6L321.4 128.6Z" fill="#1d5d85" stroke="#2f2f2f"></path><path d="M514.3 385.7L578.6 321.4L514.3 321.4Z" fill="#083651" stroke="#2f2f2f"></path><path d="M257.1 321.4L321.4 385.7L321.4 321.4Z" fill="#032a41" stroke="#2f2f2f"></path><path d="M450 385.7L514.3 385.7L514.3 321.4Z" fill="#1d5d85" stroke="#2f2f2f"></path><path d="M578.6 192.9L578.6 128.6L514.3 128.6Z" fill="#083651" stroke="#2f2f2f"></path><path d="M321.4 64.3L257.1 64.3L257.1 128.6Z" fill="#3287bc" stroke="#2f2f2f"></path><path d="M257.1 192.9L192.9 257.1L257.1 257.1Z" fill="#46b4f6" stroke="#2f2f2f"></path><path d="M257.1 257.1L192.9 257.1L257.1 321.4Z" fill="#083651" stroke="#2f2f2f"></path><path d="M257.1 321.4L257.1 385.7L321.4 385.7Z" fill="#46b4f6" stroke="#2f2f2f"></path><path d="M192.9 192.9L192.9 257.1L257.1 192.9Z" fill="#0f4362" stroke="#2f2f2f"></path><path d="M192.9 192.9L257.1 192.9L257.1 128.6Z" fill="#246b97" stroke="#2f2f2f"></path><path d="M578.6 257.1L642.9 257.1L578.6 192.9Z" fill="#3896cf" stroke="#2f2f2f"></path><path d="M578.6 192.9L642.9 192.9L578.6 128.6Z" fill="#032a41" stroke="#2f2f2f"></path><path d="M578.6 321.4L642.9 257.1L578.6 257.1Z" fill="#165073" stroke="#2f2f2f"></path><path d="M192.9 128.6L192.9 192.9L257.1 128.6Z" fill="#1d5d85" stroke="#2f2f2f"></path><path d="M642.9 257.1L642.9 192.9L578.6 192.9Z" fill="#1d5d85" stroke="#2f2f2f"></path><path d="M321.4 385.7L385.7 450L385.7 385.7Z" fill="#3896cf" stroke="#2f2f2f"></path><path d="M385.7 385.7L385.7 450L450 385.7Z" fill="#0f4362" stroke="#2f2f2f"></path><path d="M450 385.7L450 450L514.3 385.7Z" fill="#3287bc" stroke="#2f2f2f"></path><path d="M450 64.3L385.7 0L385.7 64.3Z" fill="#3fa5e2" stroke="#2f2f2f"></path><path d="M385.7 64.3L385.7 0L321.4 64.3Z" fill="#0f4362" stroke="#2f2f2f"></path><path d="M321.4 64.3L321.4 0L257.1 64.3Z" fill="#3287bc" stroke="#2f2f2f"></path><path d="M450 0L385.7 0L450 64.3Z" fill="#032a41" stroke="#2f2f2f"></path><path d="M385.7 450L450 450L450 385.7Z" fill="#1d5d85" stroke="#2f2f2f"></path><path d="M642.9 128.6L578.6 64.3L578.6 128.6Z" fill="#3896cf" stroke="#2f2f2f"></path><path d="M578.6 128.6L578.6 64.3L514.3 64.3Z" fill="#3287bc" stroke="#2f2f2f"></path><path d="M514.3 64.3L450 0L450 64.3Z" fill="#3fa5e2" stroke="#2f2f2f"></path><path d="M514.3 0L450 0L514.3 64.3Z" fill="#3fa5e2" stroke="#2f2f2f"></path><path d="M192.9 321.4L257.1 385.7L257.1 321.4Z" fill="#032a41" stroke="#2f2f2f"></path><path d="M321.4 385.7L321.4 450L385.7 450Z" fill="#1d5d85" stroke="#2f2f2f"></path><path d="M514.3 385.7L578.6 385.7L578.6 321.4Z" fill="#46b4f6" stroke="#2f2f2f"></path><path d="M578.6 321.4L642.9 321.4L642.9 257.1Z" fill="#032a41" stroke="#2f2f2f"></path><path d="M514.3 450L578.6 385.7L514.3 385.7Z" fill="#083651" stroke="#2f2f2f"></path><path d="M257.1 64.3L192.9 128.6L257.1 128.6Z" fill="#246b97" stroke="#2f2f2f"></path><path d="M642.9 192.9L642.9 128.6L578.6 128.6Z" fill="#032a41" stroke="#2f2f2f"></path><path d="M192.9 257.1L192.9 321.4L257.1 321.4Z" fill="#083651" stroke="#2f2f2f"></path><path d="M578.6 385.7L642.9 321.4L578.6 321.4Z" fill="#1d5d85" stroke="#2f2f2f"></path><path d="M257.1 385.7L321.4 450L321.4 385.7Z" fill="#3896cf" stroke="#2f2f2f"></path><path d="M578.6 64.3L514.3 0L514.3 64.3Z" fill="#165073" stroke="#2f2f2f"></path><path d="M450 450L514.3 450L514.3 385.7Z" fill="#083651" stroke="#2f2f2f"></path><path d="M385.7 0L321.4 0L321.4 64.3Z" fill="#3287bc" stroke="#2f2f2f"></path><path d="M257.1 0L192.9 64.3L257.1 64.3Z" fill="#165073" stroke="#2f2f2f"></path><path d="M257.1 64.3L192.9 64.3L192.9 128.6Z" fill="#032a41" stroke="#2f2f2f"></path><path d="M642.9 128.6L642.9 64.3L578.6 64.3Z" fill="#0f4362" stroke="#2f2f2f"></path><path d="M578.6 64.3L578.6 0L514.3 0Z" fill="#46b4f6" stroke="#2f2f2f"></path><path d="M192.9 321.4L192.9 385.7L257.1 385.7Z" fill="#2b79a9" stroke="#2f2f2f"></path><path d="M257.1 385.7L257.1 450L321.4 450Z" fill="#2b79a9" stroke="#2f2f2f"></path><path d="M321.4 0L257.1 0L257.1 64.3Z" fill="#083651" stroke="#2f2f2f"></path><path d="M578.6 450L642.9 385.7L578.6 385.7Z" fill="#3fa5e2" stroke="#2f2f2f"></path><path d="M578.6 385.7L642.9 385.7L642.9 321.4Z" fill="#3287bc" stroke="#2f2f2f"></path><path d="M192.9 385.7L257.1 450L257.1 385.7Z" fill="#3287bc" stroke="#2f2f2f"></path><path d="M514.3 450L578.6 450L578.6 385.7Z" fill="#46b4f6" stroke="#2f2f2f"></path><path d="M642.9 64.3L578.6 0L578.6 64.3Z" fill="#165073" stroke="#2f2f2f"></path><path d="M642.9 257.1L707.1 257.1L642.9 192.9Z" fill="#2b79a9" stroke="#2f2f2f"></path><path d="M642.9 192.9L707.1 192.9L642.9 128.6Z" fill="#3287bc" stroke="#2f2f2f"></path><path d="M642.9 128.6L707.1 128.6L642.9 64.3Z" fill="#246b97" stroke="#2f2f2f"></path><path d="M642.9 321.4L707.1 257.1L642.9 257.1Z" fill="#3896cf" stroke="#2f2f2f"></path><path d="M707.1 321.4L707.1 257.1L642.9 321.4Z" fill="#46b4f6" stroke="#2f2f2f"></path><path d="M707.1 257.1L707.1 192.9L642.9 192.9Z" fill="#032a41" stroke="#2f2f2f"></path><path d="M128.6 128.6L128.6 192.9L192.9 128.6Z" fill="#2b79a9" stroke="#2f2f2f"></path><path d="M192.9 128.6L128.6 192.9L192.9 192.9Z" fill="#3287bc" stroke="#2f2f2f"></path><path d="M192.9 192.9L128.6 192.9L192.9 257.1Z" fill="#1d5d85" stroke="#2f2f2f"></path><path d="M192.9 257.1L128.6 257.1L192.9 321.4Z" fill="#3287bc" stroke="#2f2f2f"></path><path d="M192.9 321.4L128.6 321.4L192.9 385.7Z" fill="#0f4362" stroke="#2f2f2f"></path><path d="M128.6 192.9L128.6 257.1L192.9 257.1Z" fill="#3fa5e2" stroke="#2f2f2f"></path><path d="M707.1 385.7L707.1 321.4L642.9 385.7Z" fill="#1d5d85" stroke="#2f2f2f"></path><path d="M642.9 385.7L707.1 321.4L642.9 321.4Z" fill="#032a41" stroke="#2f2f2f"></path><path d="M707.1 192.9L707.1 128.6L642.9 128.6Z" fill="#3287bc" stroke="#2f2f2f"></path><path d="M642.9 64.3L642.9 0L578.6 0Z" fill="#2b79a9" stroke="#2f2f2f"></path><path d="M128.6 257.1L128.6 321.4L192.9 321.4Z" fill="#0f4362" stroke="#2f2f2f"></path><path d="M192.9 64.3L128.6 128.6L192.9 128.6Z" fill="#3287bc" stroke="#2f2f2f"></path><path d="M257.1 0L192.9 0L192.9 64.3Z" fill="#165073" stroke="#2f2f2f"></path><path d="M192.9 64.3L128.6 64.3L128.6 128.6Z" fill="#165073" stroke="#2f2f2f"></path><path d="M128.6 385.7L192.9 450L192.9 385.7Z" fill="#246b97" stroke="#2f2f2f"></path><path d="M192.9 385.7L192.9 450L257.1 450Z" fill="#032a41" stroke="#2f2f2f"></path><path d="M707.1 64.3L642.9 0L642.9 64.3Z" fill="#3287bc" stroke="#2f2f2f"></path><path d="M578.6 450L642.9 450L642.9 385.7Z" fill="#3896cf" stroke="#2f2f2f"></path><path d="M192.9 0L128.6 64.3L192.9 64.3Z" fill="#3287bc" stroke="#2f2f2f"></path><path d="M707.1 128.6L707.1 64.3L642.9 64.3Z" fill="#2b79a9" stroke="#2f2f2f"></path><path d="M642.9 450L707.1 385.7L642.9 385.7Z" fill="#46b4f6" stroke="#2f2f2f"></path><path d="M128.6 321.4L128.6 385.7L192.9 385.7Z" fill="#2b79a9" stroke="#2f2f2f"></path><path d="M64.3 128.6L64.3 192.9L128.6 128.6Z" fill="#165073" stroke="#2f2f2f"></path><path d="M128.6 128.6L64.3 192.9L128.6 192.9Z" fill="#3fa5e2" stroke="#2f2f2f"></path><path d="M128.6 192.9L64.3 192.9L128.6 257.1Z" fill="#083651" stroke="#2f2f2f"></path><path d="M128.6 257.1L64.3 257.1L128.6 321.4Z" fill="#1d5d85" stroke="#2f2f2f"></path><path d="M128.6 321.4L64.3 321.4L128.6 385.7Z" fill="#2b79a9" stroke="#2f2f2f"></path><path d="M64.3 192.9L64.3 257.1L128.6 257.1Z" fill="#246b97" stroke="#2f2f2f"></path><path d="M707.1 257.1L771.4 257.1L707.1 192.9Z" fill="#083651" stroke="#2f2f2f"></path><path d="M707.1 192.9L771.4 192.9L707.1 128.6Z" fill="#1d5d85" stroke="#2f2f2f"></path><path d="M707.1 128.6L771.4 128.6L707.1 64.3Z" fill="#3fa5e2" stroke="#2f2f2f"></path><path d="M707.1 321.4L771.4 257.1L707.1 257.1Z" fill="#246b97" stroke="#2f2f2f"></path><path d="M771.4 321.4L771.4 257.1L707.1 321.4Z" fill="#032a41" stroke="#2f2f2f"></path><path d="M771.4 257.1L771.4 192.9L707.1 192.9Z" fill="#083651" stroke="#2f2f2f"></path><path d="M64.3 257.1L64.3 321.4L128.6 321.4Z" fill="#3287bc" stroke="#2f2f2f"></path><path d="M128.6 64.3L64.3 128.6L128.6 128.6Z" fill="#032a41" stroke="#2f2f2f"></path><path d="M642.9 450L707.1 450L707.1 385.7Z" fill="#032a41" stroke="#2f2f2f"></path><path d="M707.1 385.7L771.4 321.4L707.1 321.4Z" fill="#3fa5e2" stroke="#2f2f2f"></path><path d="M128.6 385.7L128.6 450L192.9 450Z" fill="#3896cf" stroke="#2f2f2f"></path><path d="M64.3 385.7L128.6 450L128.6 385.7Z" fill="#1d5d85" stroke="#2f2f2f"></path><path d="M771.4 64.3L707.1 0L707.1 64.3Z" fill="#3fa5e2" stroke="#2f2f2f"></path><path d="M707.1 64.3L707.1 0L642.9 0Z" fill="#0f4362" stroke="#2f2f2f"></path><path d="M192.9 0L128.6 0L128.6 64.3Z" fill="#3287bc" stroke="#2f2f2f"></path><path d="M128.6 64.3L64.3 64.3L64.3 128.6Z" fill="#165073" stroke="#2f2f2f"></path><path d="M771.4 385.7L771.4 321.4L707.1 385.7Z" fill="#246b97" stroke="#2f2f2f"></path><path d="M771.4 192.9L771.4 128.6L707.1 128.6Z" fill="#0f4362" stroke="#2f2f2f"></path><path d="M64.3 321.4L64.3 385.7L128.6 385.7Z" fill="#3896cf" stroke="#2f2f2f"></path><path d="M128.6 0L64.3 64.3L128.6 64.3Z" fill="#0f4362" stroke="#2f2f2f"></path><path d="M771.4 128.6L771.4 64.3L707.1 64.3Z" fill="#083651" stroke="#2f2f2f"></path><path d="M707.1 450L771.4 385.7L707.1 385.7Z" fill="#1d5d85" stroke="#2f2f2f"></path><path d="M0 128.6L0 192.9L64.3 128.6Z" fill="#1d5d85" stroke="#2f2f2f"></path><path d="M64.3 128.6L0 192.9L64.3 192.9Z" fill="#165073" stroke="#2f2f2f"></path><path d="M64.3 192.9L0 192.9L64.3 257.1Z" fill="#3896cf" stroke="#2f2f2f"></path><path d="M64.3 257.1L0 257.1L64.3 321.4Z" fill="#1d5d85" stroke="#2f2f2f"></path><path d="M64.3 321.4L0 321.4L64.3 385.7Z" fill="#3287bc" stroke="#2f2f2f"></path><path d="M771.4 257.1L835.7 257.1L771.4 192.9Z" fill="#3287bc" stroke="#2f2f2f"></path><path d="M771.4 192.9L835.7 192.9L771.4 128.6Z" fill="#3896cf" stroke="#2f2f2f"></path><path d="M771.4 128.6L835.7 128.6L771.4 64.3Z" fill="#083651" stroke="#2f2f2f"></path><path d="M771.4 321.4L835.7 257.1L771.4 257.1Z" fill="#246b97" stroke="#2f2f2f"></path><path d="M835.7 321.4L835.7 257.1L771.4 321.4Z" fill="#2b79a9" stroke="#2f2f2f"></path><path d="M835.7 257.1L835.7 192.9L771.4 192.9Z" fill="#083651" stroke="#2f2f2f"></path><path d="M128.6 0L64.3 0L64.3 64.3Z" fill="#3896cf" stroke="#2f2f2f"></path><path d="M64.3 64.3L0 128.6L64.3 128.6Z" fill="#0f4362" stroke="#2f2f2f"></path><path d="M0 192.9L0 257.1L64.3 257.1Z" fill="#032a41" stroke="#2f2f2f"></path><path d="M64.3 385.7L64.3 450L128.6 450Z" fill="#032a41" stroke="#2f2f2f"></path><path d="M0 385.7L64.3 450L64.3 385.7Z" fill="#0f4362" stroke="#2f2f2f"></path><path d="M835.7 64.3L771.4 0L771.4 64.3Z" fill="#083651" stroke="#2f2f2f"></path><path d="M771.4 64.3L771.4 0L707.1 0Z" fill="#032a41" stroke="#2f2f2f"></path><path d="M707.1 450L771.4 450L771.4 385.7Z" fill="#165073" stroke="#2f2f2f"></path><path d="M771.4 385.7L835.7 321.4L771.4 321.4Z" fill="#083651" stroke="#2f2f2f"></path><path d="M835.7 385.7L835.7 321.4L771.4 385.7Z" fill="#083651" stroke="#2f2f2f"></path><path d="M0 257.1L0 321.4L64.3 321.4Z" fill="#0f4362" stroke="#2f2f2f"></path><path d="M0 64.3L0 128.6L64.3 64.3Z" fill="#46b4f6" stroke="#2f2f2f"></path><path d="M835.7 192.9L835.7 128.6L771.4 128.6Z" fill="#46b4f6" stroke="#2f2f2f"></path><path d="M64.3 0L0 64.3L64.3 64.3Z" fill="#083651" stroke="#2f2f2f"></path><path d="M771.4 450L835.7 385.7L771.4 385.7Z" fill="#032a41" stroke="#2f2f2f"></path><path d="M0 321.4L0 385.7L64.3 385.7Z" fill="#46b4f6" stroke="#2f2f2f"></path><path d="M835.7 128.6L835.7 64.3L771.4 64.3Z" fill="#1d5d85" stroke="#2f2f2f"></path><path d="M0 385.7L0 450L64.3 450Z" fill="#3287bc" stroke="#2f2f2f"></path><path d="M835.7 64.3L835.7 0L771.4 0Z" fill="#165073" stroke="#2f2f2f"></path><path d="M771.4 450L835.7 450L835.7 385.7Z" fill="#032a41" stroke="#2f2f2f"></path><path d="M64.3 0L0 0L0 64.3Z" fill="#0f4362" stroke="#2f2f2f"></path><path d="M835.7 257.1L900 192.9L835.7 192.9Z" fill="#2b79a9" stroke="#2f2f2f"></path><path d="M835.7 192.9L900 192.9L835.7 128.6Z" fill="#032a41" stroke="#2f2f2f"></path><path d="M835.7 128.6L900 128.6L835.7 64.3Z" fill="#165073" stroke="#2f2f2f"></path><path d="M835.7 64.3L900 64.3L835.7 0Z" fill="#0f4362" stroke="#2f2f2f"></path><path d="M900 257.1L900 192.9L835.7 257.1Z" fill="#46b4f6" stroke="#2f2f2f"></path><path d="M900 257.1L835.7 257.1L835.7 321.4Z" fill="#3287bc" stroke="#2f2f2f"></path><path d="M900 257.1L835.7 321.4L900 321.4Z" fill="#46b4f6" stroke="#2f2f2f"></path><path d="M900 321.4L835.7 321.4L835.7 385.7Z" fill="#2b79a9" stroke="#2f2f2f"></path><path d="M900 385.7L900 321.4L835.7 385.7Z" fill="#3287bc" stroke="#2f2f2f"></path><path d="M900 192.9L900 128.6L835.7 128.6Z" fill="#46b4f6" stroke="#2f2f2f"></path><path d="M835.7 450L900 385.7L835.7 385.7Z" fill="#46b4f6" stroke="#2f2f2f"></path><path d="M900 128.6L900 64.3L835.7 64.3Z" fill="#032a41" stroke="#2f2f2f"></path><path d="M900 64.3L900 0L835.7 0Z" fill="#246b97" stroke="#2f2f2f"></path><path d="M835.7 450L900 450L900 385.7Z" fill="#2b79a9" stroke="#2f2f2f"></path></g></svg>