<svg id="visual" viewBox="0 0 900 450" width="900" height="450" xmlns="http://www.w3.org/2000/svg" xmlns:xlink="http://www.w3.org/1999/xlink" version="1.1"><g stroke-width="1" stroke-linejoin="bevel"><path d="M490.9 225L490.9 150L409.1 225Z" fill="#3896cf" stroke="#2f2f2f"></path><path d="M409.1 150L409.1 225L490.9 150Z" fill="#3fa5e2" stroke="#2f2f2f"></path><path d="M490.9 150L409.1 75L409.1 150Z" fill="#165073" stroke="#2f2f2f"></path><path d="M409.1 300L490.9 300L490.9 225Z" fill="#165073" stroke="#2f2f2f"></path><path d="M409.1 225L409.1 300L490.9 225Z" fill="#083651" stroke="#2f2f2f"></path><path d="M490.9 75L409.1 75L490.9 150Z" fill="#083651" stroke="#2f2f2f"></path><path d="M572.7 225L572.7 150L490.9 225Z" fill="#246b97" stroke="#2f2f2f"></path><path d="M490.9 225L572.7 150L490.9 150Z" fill="#032a41" stroke="#2f2f2f"></path><path d="M490.9 150L572.7 150L490.9 75Z" fill="#1d5d85" stroke="#2f2f2f"></path><path d="M327.3 75L327.3 150L409.1 150Z" fill="#3fa5e2" stroke="#2f2f2f"></path><path d="M409.1 150L327.3 225L409.1 225Z" fill="#46b4f6" stroke="#2f2f2f"></path><path d="M409.1 225L327.3 300L409.1 300Z" fill="#032a41" stroke="#2f2f2f"></path><path d="M327.3 150L327.3 225L409.1 150Z" fill="#246b97" stroke="#2f2f2f"></path><path d="M490.9 300L572.7 225L490.9 225Z" fill="#3fa5e2" stroke="#2f2f2f"></path><path d="M572.7 150L572.7 75L490.9 75Z" fill="#083651" stroke="#2f2f2f"></path><path d="M409.1 75L327.3 75L409.1 150Z" fill="#2b79a9" stroke="#2f2f2f"></path><path d="M327.3 225L327.3 300L409.1 225Z" fill="#3896cf" stroke="#2f2f2f"></path><path d="M490.9 300L572.7 300L572.7 225Z" fill="#1d5d85" stroke="#2f2f2f"></path><path d="M572.7 75L490.9 0L490.9 75Z" fill="#1d5d85" stroke="#2f2f2f"></path><path d="M490.9 75L409.1 0L409.1 75Z" fill="#246b97" stroke="#2f2f2f"></path><path d="M409.1 75L327.3 0L327.3 75Z" fill="#0f4362" stroke="#2f2f2f"></path><path d="M409.1 375L490.9 300L409.1 300Z" fill="#3287bc" stroke="#2f2f2f"></path><path d="M409.1 375L490.9 375L490.9 300Z" fill="#083651" stroke="#2f2f2f"></path><path d="M490.9 300L490.9 375L572.7 300Z" fill="#083651" stroke="#2f2f2f"></path><path d="M327.3 375L409.1 375L409.1 300Z" fill="#083651" stroke="#2f2f2f"></path><path d="M490.9 0L409.1 0L490.9 75Z" fill="#3fa5e2" stroke="#2f2f2f"></path><path d="M654.5 300L654.5 225L572.7 225Z" fill="#46b4f6" stroke="#2f2f2f"></path><path d="M572.7 225L654.5 150L572.7 150Z" fill="#083651" stroke="#2f2f2f"></path><path d="M572.7 150L654.5 75L572.7 75Z" fill="#3287bc" stroke="#2f2f2f"></path><path d="M654.5 225L654.5 150L572.7 225Z" fill="#083651" stroke="#2f2f2f"></path><path d="M245.5 150L245.5 225L327.3 225Z" fill="#46b4f6" stroke="#2f2f2f"></path><path d="M327.3 225L245.5 300L327.3 300Z" fill="#0f4362" stroke="#2f2f2f"></path><path d="M245.5 150L327.3 225L327.3 150Z" fill="#3896cf" stroke="#2f2f2f"></path><path d="M245.5 75L245.5 150L327.3 150Z" fill="#3fa5e2" stroke="#2f2f2f"></path><path d="M245.5 375L327.3 375L327.3 300Z" fill="#3287bc" stroke="#2f2f2f"></path><path d="M327.3 300L327.3 375L409.1 300Z" fill="#165073" stroke="#2f2f2f"></path><path d="M654.5 0L572.7 0L572.7 75Z" fill="#46b4f6" stroke="#2f2f2f"></path><path d="M572.7 75L572.7 0L490.9 0Z" fill="#3fa5e2" stroke="#2f2f2f"></path><path d="M409.1 0L327.3 0L409.1 75Z" fill="#165073" stroke="#2f2f2f"></path><path d="M327.3 75L245.5 75L327.3 150Z" fill="#3896cf" stroke="#2f2f2f"></path><path d="M490.9 375L572.7 375L572.7 300Z" fill="#165073" stroke="#2f2f2f"></path><path d="M572.7 300L654.5 300L572.7 225Z" fill="#1d5d85" stroke="#2f2f2f"></path><path d="M654.5 375L654.5 300L572.7 300Z" fill="#0f4362" stroke="#2f2f2f"></path><path d="M654.5 150L654.5 75L572.7 150Z" fill="#083651" stroke="#2f2f2f"></path><path d="M245.5 0L245.5 75L327.3 75Z" fill="#3fa5e2" stroke="#2f2f2f"></path><path d="M245.5 225L245.5 300L327.3 225Z" fill="#032a41" stroke="#2f2f2f"></path><path d="M409.1 450L490.9 450L490.9 375Z" fill="#3896cf" stroke="#2f2f2f"></path><path d="M490.9 375L490.9 450L572.7 375Z" fill="#3287bc" stroke="#2f2f2f"></path><path d="M409.1 450L490.9 375L409.1 375Z" fill="#246b97" stroke="#2f2f2f"></path><path d="M327.3 450L409.1 450L409.1 375Z" fill="#3896cf" stroke="#2f2f2f"></path><path d="M654.5 450L654.5 375L572.7 375Z" fill="#0f4362" stroke="#2f2f2f"></path><path d="M572.7 375L654.5 375L572.7 300Z" fill="#1d5d85" stroke="#2f2f2f"></path><path d="M654.5 75L654.5 0L572.7 75Z" fill="#165073" stroke="#2f2f2f"></path><path d="M327.3 0L245.5 0L327.3 75Z" fill="#46b4f6" stroke="#2f2f2f"></path><path d="M245.5 300L245.5 375L327.3 300Z" fill="#46b4f6" stroke="#2f2f2f"></path><path d="M327.3 375L327.3 450L409.1 375Z" fill="#083651" stroke="#2f2f2f"></path><path d="M654.5 150L736.4 75L654.5 75Z" fill="#165073" stroke="#2f2f2f"></path><path d="M654.5 75L736.4 0L654.5 0Z" fill="#3287bc" stroke="#2f2f2f"></path><path d="M736.4 225L736.4 150L654.5 150Z" fill="#3fa5e2" stroke="#2f2f2f"></path><path d="M736.4 225L654.5 150L654.5 225Z" fill="#032a41" stroke="#2f2f2f"></path><path d="M736.4 225L654.5 225L736.4 300Z" fill="#3fa5e2" stroke="#2f2f2f"></path><path d="M736.4 300L654.5 225L654.5 300Z" fill="#083651" stroke="#2f2f2f"></path><path d="M245.5 225L163.6 300L245.5 300Z" fill="#3fa5e2" stroke="#2f2f2f"></path><path d="M245.5 300L163.6 375L245.5 375Z" fill="#2b79a9" stroke="#2f2f2f"></path><path d="M163.6 150L163.6 225L245.5 225Z" fill="#032a41" stroke="#2f2f2f"></path><path d="M163.6 150L245.5 225L245.5 150Z" fill="#0f4362" stroke="#2f2f2f"></path><path d="M163.6 150L245.5 150L163.6 75Z" fill="#083651" stroke="#2f2f2f"></path><path d="M163.6 75L245.5 150L245.5 75Z" fill="#2b79a9" stroke="#2f2f2f"></path><path d="M245.5 450L327.3 450L327.3 375Z" fill="#3896cf" stroke="#2f2f2f"></path><path d="M490.9 450L572.7 450L572.7 375Z" fill="#2b79a9" stroke="#2f2f2f"></path><path d="M736.4 375L736.4 300L654.5 300Z" fill="#3896cf" stroke="#2f2f2f"></path><path d="M736.4 150L736.4 75L654.5 150Z" fill="#032a41" stroke="#2f2f2f"></path><path d="M163.6 225L163.6 300L245.5 225Z" fill="#246b97" stroke="#2f2f2f"></path><path d="M163.6 0L163.6 75L245.5 75Z" fill="#032a41" stroke="#2f2f2f"></path><path d="M572.7 450L654.5 450L572.7 375Z" fill="#3fa5e2" stroke="#2f2f2f"></path><path d="M654.5 375L736.4 375L654.5 300Z" fill="#3fa5e2" stroke="#2f2f2f"></path><path d="M163.6 450L245.5 450L245.5 375Z" fill="#1d5d85" stroke="#2f2f2f"></path><path d="M245.5 375L245.5 450L327.3 375Z" fill="#3287bc" stroke="#2f2f2f"></path><path d="M736.4 450L736.4 375L654.5 375Z" fill="#246b97" stroke="#2f2f2f"></path><path d="M736.4 75L736.4 0L654.5 75Z" fill="#3287bc" stroke="#2f2f2f"></path><path d="M245.5 0L163.6 0L245.5 75Z" fill="#3287bc" stroke="#2f2f2f"></path><path d="M163.6 300L163.6 375L245.5 300Z" fill="#3896cf" stroke="#2f2f2f"></path><path d="M736.4 150L818.2 150L736.4 75Z" fill="#083651" stroke="#2f2f2f"></path><path d="M736.4 75L818.2 75L736.4 0Z" fill="#3287bc" stroke="#2f2f2f"></path><path d="M736.4 225L818.2 150L736.4 150Z" fill="#3896cf" stroke="#2f2f2f"></path><path d="M818.2 225L818.2 150L736.4 225Z" fill="#032a41" stroke="#2f2f2f"></path><path d="M818.2 225L736.4 225L736.4 300Z" fill="#3287bc" stroke="#2f2f2f"></path><path d="M818.2 300L818.2 225L736.4 300Z" fill="#3fa5e2" stroke="#2f2f2f"></path><path d="M163.6 225L81.8 300L163.6 300Z" fill="#3287bc" stroke="#2f2f2f"></path><path d="M163.6 300L81.8 375L163.6 375Z" fill="#3287bc" stroke="#2f2f2f"></path><path d="M81.8 150L81.8 225L163.6 225Z" fill="#1d5d85" stroke="#2f2f2f"></path><path d="M81.8 150L163.6 225L163.6 150Z" fill="#46b4f6" stroke="#2f2f2f"></path><path d="M81.8 150L163.6 150L81.8 75Z" fill="#3fa5e2" stroke="#2f2f2f"></path><path d="M81.8 75L163.6 150L163.6 75Z" fill="#165073" stroke="#2f2f2f"></path><path d="M818.2 375L818.2 300L736.4 375Z" fill="#083651" stroke="#2f2f2f"></path><path d="M736.4 375L818.2 300L736.4 300Z" fill="#032a41" stroke="#2f2f2f"></path><path d="M818.2 150L818.2 75L736.4 75Z" fill="#0f4362" stroke="#2f2f2f"></path><path d="M81.8 0L81.8 75L163.6 75Z" fill="#2b79a9" stroke="#2f2f2f"></path><path d="M81.8 225L81.8 300L163.6 225Z" fill="#246b97" stroke="#2f2f2f"></path><path d="M654.5 450L736.4 450L654.5 375Z" fill="#165073" stroke="#2f2f2f"></path><path d="M163.6 375L163.6 450L245.5 375Z" fill="#3287bc" stroke="#2f2f2f"></path><path d="M81.8 450L163.6 450L163.6 375Z" fill="#3287bc" stroke="#2f2f2f"></path><path d="M736.4 450L818.2 375L736.4 375Z" fill="#2b79a9" stroke="#2f2f2f"></path><path d="M818.2 75L818.2 0L736.4 0Z" fill="#46b4f6" stroke="#2f2f2f"></path><path d="M81.8 300L81.8 375L163.6 300Z" fill="#1d5d85" stroke="#2f2f2f"></path><path d="M163.6 0L81.8 0L163.6 75Z" fill="#2b79a9" stroke="#2f2f2f"></path><path d="M81.8 225L0 300L81.8 300Z" fill="#032a41" stroke="#2f2f2f"></path><path d="M81.8 300L0 375L81.8 375Z" fill="#032a41" stroke="#2f2f2f"></path><path d="M0 150L0 225L81.8 225Z" fill="#1d5d85" stroke="#2f2f2f"></path><path d="M0 150L81.8 225L81.8 150Z" fill="#2b79a9" stroke="#2f2f2f"></path><path d="M0 150L81.8 150L0 75Z" fill="#0f4362" stroke="#2f2f2f"></path><path d="M818.2 150L900 150L818.2 75Z" fill="#165073" stroke="#2f2f2f"></path><path d="M818.2 75L900 75L818.2 0Z" fill="#165073" stroke="#2f2f2f"></path><path d="M818.2 225L900 150L818.2 150Z" fill="#083651" stroke="#2f2f2f"></path><path d="M900 225L900 150L818.2 225Z" fill="#3287bc" stroke="#2f2f2f"></path><path d="M900 225L818.2 225L818.2 300Z" fill="#246b97" stroke="#2f2f2f"></path><path d="M0 75L81.8 150L81.8 75Z" fill="#0f4362" stroke="#2f2f2f"></path><path d="M900 300L900 225L818.2 300Z" fill="#46b4f6" stroke="#2f2f2f"></path><path d="M736.4 450L818.2 450L818.2 375Z" fill="#032a41" stroke="#2f2f2f"></path><path d="M818.2 375L900 300L818.2 300Z" fill="#083651" stroke="#2f2f2f"></path><path d="M81.8 375L81.8 450L163.6 375Z" fill="#083651" stroke="#2f2f2f"></path><path d="M0 450L81.8 450L81.8 375Z" fill="#3287bc" stroke="#2f2f2f"></path><path d="M900 150L900 75L818.2 75Z" fill="#032a41" stroke="#2f2f2f"></path><path d="M0 225L0 300L81.8 225Z" fill="#0f4362" stroke="#2f2f2f"></path><path d="M900 375L900 300L818.2 375Z" fill="#165073" stroke="#2f2f2f"></path><path d="M0 0L0 75L81.8 75Z" fill="#46b4f6" stroke="#2f2f2f"></path><path d="M81.8 0L0 0L81.8 75Z" fill="#3fa5e2" stroke="#2f2f2f"></path><path d="M818.2 450L900 375L818.2 375Z" fill="#032a41" stroke="#2f2f2f"></path><path d="M0 300L0 375L81.8 300Z" fill="#083651" stroke="#2f2f2f"></path><path d="M900 75L900 0L818.2 0Z" fill="#246b97" stroke="#2f2f2f"></path><path d="M0 375L0 450L81.8 375Z" fill="#165073" stroke="#2f2f2f"></path><path d="M818.2 450L900 450L900 375Z" fill="#0f4362" stroke="#2f2f2f"></path></g></svg>