<svg id="visual" viewBox="0 0 900 450" width="900" height="450" xmlns="http://www.w3.org/2000/svg" xmlns:xlink="http://www.w3.org/1999/xlink" version="1.1"><g stroke-width="1" stroke-linejoin="bevel"><path d="M476.5 200L476.5 150L423.5 150Z" fill="#165073" stroke="#2f2f2f"></path><path d="M423.5 150L423.5 200L476.5 200Z" fill="#246b97" stroke="#2f2f2f"></path><path d="M476.5 150L476.5 100L423.5 150Z" fill="#3896cf" stroke="#2f2f2f"></path><path d="M423.5 200L476.5 250L476.5 200Z" fill="#1d5d85" stroke="#2f2f2f"></path><path d="M423.5 200L423.5 250L476.5 250Z" fill="#3fa5e2" stroke="#2f2f2f"></path><path d="M476.5 100L423.5 100L423.5 150Z" fill="#165073" stroke="#2f2f2f"></path><path d="M476.5 250L529.4 200L476.5 200Z" fill="#2b79a9" stroke="#2f2f2f"></path><path d="M476.5 200L529.4 200L476.5 150Z" fill="#3896cf" stroke="#2f2f2f"></path><path d="M476.5 150L529.4 150L476.5 100Z" fill="#1d5d85" stroke="#2f2f2f"></path><path d="M529.4 200L529.4 150L476.5 150Z" fill="#165073" stroke="#2f2f2f"></path><path d="M370.6 150L370.6 200L423.5 150Z" fill="#3fa5e2" stroke="#2f2f2f"></path><path d="M423.5 150L370.6 200L423.5 200Z" fill="#2b79a9" stroke="#2f2f2f"></path><path d="M423.5 200L370.6 200L423.5 250Z" fill="#3896cf" stroke="#2f2f2f"></path><path d="M423.5 100L370.6 150L423.5 150Z" fill="#3287bc" stroke="#2f2f2f"></path><path d="M529.4 150L529.4 100L476.5 100Z" fill="#032a41" stroke="#2f2f2f"></path><path d="M476.5 250L529.4 250L529.4 200Z" fill="#246b97" stroke="#2f2f2f"></path><path d="M423.5 100L370.6 100L370.6 150Z" fill="#246b97" stroke="#2f2f2f"></path><path d="M370.6 200L370.6 250L423.5 250Z" fill="#0f4362" stroke="#2f2f2f"></path><path d="M529.4 100L476.5 50L476.5 100Z" fill="#083651" stroke="#2f2f2f"></path><path d="M476.5 100L476.5 50L423.5 100Z" fill="#0f4362" stroke="#2f2f2f"></path><path d="M423.5 100L423.5 50L370.6 100Z" fill="#2b79a9" stroke="#2f2f2f"></path><path d="M423.5 250L476.5 300L476.5 250Z" fill="#46b4f6" stroke="#2f2f2f"></path><path d="M476.5 250L476.5 300L529.4 250Z" fill="#46b4f6" stroke="#2f2f2f"></path><path d="M423.5 300L476.5 300L423.5 250Z" fill="#46b4f6" stroke="#2f2f2f"></path><path d="M476.5 50L423.5 50L423.5 100Z" fill="#1d5d85" stroke="#2f2f2f"></path><path d="M370.6 250L423.5 300L423.5 250Z" fill="#0f4362" stroke="#2f2f2f"></path><path d="M529.4 200L582.4 150L529.4 150Z" fill="#165073" stroke="#2f2f2f"></path><path d="M529.4 150L582.4 150L529.4 100Z" fill="#3287bc" stroke="#2f2f2f"></path><path d="M582.4 200L582.4 150L529.4 200Z" fill="#3287bc" stroke="#2f2f2f"></path><path d="M529.4 250L582.4 200L529.4 200Z" fill="#2b79a9" stroke="#2f2f2f"></path><path d="M370.6 100L317.6 150L370.6 150Z" fill="#2b79a9" stroke="#2f2f2f"></path><path d="M370.6 150L317.6 150L370.6 200Z" fill="#246b97" stroke="#2f2f2f"></path><path d="M370.6 200L317.6 200L370.6 250Z" fill="#3fa5e2" stroke="#2f2f2f"></path><path d="M317.6 150L317.6 200L370.6 200Z" fill="#3896cf" stroke="#2f2f2f"></path><path d="M476.5 300L529.4 300L529.4 250Z" fill="#1d5d85" stroke="#2f2f2f"></path><path d="M529.4 250L582.4 250L582.4 200Z" fill="#3896cf" stroke="#2f2f2f"></path><path d="M529.4 100L529.4 50L476.5 50Z" fill="#1d5d85" stroke="#2f2f2f"></path><path d="M582.4 100L529.4 50L529.4 100Z" fill="#3896cf" stroke="#2f2f2f"></path><path d="M423.5 50L370.6 50L370.6 100Z" fill="#0f4362" stroke="#2f2f2f"></path><path d="M370.6 100L317.6 100L317.6 150Z" fill="#0f4362" stroke="#2f2f2f"></path><path d="M370.6 250L370.6 300L423.5 300Z" fill="#032a41" stroke="#2f2f2f"></path><path d="M317.6 250L370.6 300L370.6 250Z" fill="#246b97" stroke="#2f2f2f"></path><path d="M529.4 300L582.4 250L529.4 250Z" fill="#3287bc" stroke="#2f2f2f"></path><path d="M582.4 150L582.4 100L529.4 100Z" fill="#46b4f6" stroke="#2f2f2f"></path><path d="M317.6 200L317.6 250L370.6 250Z" fill="#2b79a9" stroke="#2f2f2f"></path><path d="M370.6 50L317.6 100L370.6 100Z" fill="#165073" stroke="#2f2f2f"></path><path d="M423.5 350L476.5 350L423.5 300Z" fill="#2b79a9" stroke="#2f2f2f"></path><path d="M423.5 300L476.5 350L476.5 300Z" fill="#165073" stroke="#2f2f2f"></path><path d="M476.5 300L476.5 350L529.4 300Z" fill="#1d5d85" stroke="#2f2f2f"></path><path d="M529.4 50L476.5 0L476.5 50Z" fill="#46b4f6" stroke="#2f2f2f"></path><path d="M476.5 50L476.5 0L423.5 50Z" fill="#3fa5e2" stroke="#2f2f2f"></path><path d="M423.5 50L423.5 0L370.6 50Z" fill="#3fa5e2" stroke="#2f2f2f"></path><path d="M476.5 0L423.5 0L423.5 50Z" fill="#032a41" stroke="#2f2f2f"></path><path d="M370.6 300L423.5 350L423.5 300Z" fill="#46b4f6" stroke="#2f2f2f"></path><path d="M582.4 100L582.4 50L529.4 50Z" fill="#3896cf" stroke="#2f2f2f"></path><path d="M529.4 50L529.4 0L476.5 0Z" fill="#3896cf" stroke="#2f2f2f"></path><path d="M529.4 300L582.4 300L582.4 250Z" fill="#46b4f6" stroke="#2f2f2f"></path><path d="M529.4 350L582.4 300L529.4 300Z" fill="#3fa5e2" stroke="#2f2f2f"></path><path d="M317.6 250L317.6 300L370.6 300Z" fill="#1d5d85" stroke="#2f2f2f"></path><path d="M370.6 300L370.6 350L423.5 350Z" fill="#0f4362" stroke="#2f2f2f"></path><path d="M370.6 50L317.6 50L317.6 100Z" fill="#083651" stroke="#2f2f2f"></path><path d="M370.6 0L317.6 50L370.6 50Z" fill="#0f4362" stroke="#2f2f2f"></path><path d="M635.3 200L635.3 150L582.4 150Z" fill="#3fa5e2" stroke="#2f2f2f"></path><path d="M582.4 150L635.3 100L582.4 100Z" fill="#3287bc" stroke="#2f2f2f"></path><path d="M582.4 100L635.3 50L582.4 50Z" fill="#2b79a9" stroke="#2f2f2f"></path><path d="M635.3 200L582.4 150L582.4 200Z" fill="#246b97" stroke="#2f2f2f"></path><path d="M635.3 200L582.4 200L635.3 250Z" fill="#3287bc" stroke="#2f2f2f"></path><path d="M635.3 250L582.4 200L582.4 250Z" fill="#0f4362" stroke="#2f2f2f"></path><path d="M317.6 150L264.7 200L317.6 200Z" fill="#3287bc" stroke="#2f2f2f"></path><path d="M317.6 200L264.7 200L317.6 250Z" fill="#46b4f6" stroke="#2f2f2f"></path><path d="M317.6 250L264.7 250L317.6 300Z" fill="#1d5d85" stroke="#2f2f2f"></path><path d="M264.7 150L264.7 200L317.6 150Z" fill="#1d5d85" stroke="#2f2f2f"></path><path d="M264.7 150L317.6 150L317.6 100Z" fill="#3287bc" stroke="#2f2f2f"></path><path d="M264.7 100L264.7 150L317.6 100Z" fill="#083651" stroke="#2f2f2f"></path><path d="M476.5 350L529.4 350L529.4 300Z" fill="#165073" stroke="#2f2f2f"></path><path d="M582.4 50L529.4 0L529.4 50Z" fill="#46b4f6" stroke="#2f2f2f"></path><path d="M423.5 0L370.6 0L370.6 50Z" fill="#083651" stroke="#2f2f2f"></path><path d="M317.6 300L370.6 350L370.6 300Z" fill="#0f4362" stroke="#2f2f2f"></path><path d="M635.3 150L635.3 100L582.4 150Z" fill="#1d5d85" stroke="#2f2f2f"></path><path d="M582.4 50L582.4 0L529.4 0Z" fill="#3fa5e2" stroke="#2f2f2f"></path><path d="M635.3 300L582.4 250L582.4 300Z" fill="#032a41" stroke="#2f2f2f"></path><path d="M635.3 300L635.3 250L582.4 250Z" fill="#083651" stroke="#2f2f2f"></path><path d="M317.6 50L264.7 100L317.6 100Z" fill="#032a41" stroke="#2f2f2f"></path><path d="M264.7 200L264.7 250L317.6 250Z" fill="#083651" stroke="#2f2f2f"></path><path d="M529.4 350L582.4 350L582.4 300Z" fill="#246b97" stroke="#2f2f2f"></path><path d="M635.3 0L582.4 0L582.4 50Z" fill="#083651" stroke="#2f2f2f"></path><path d="M370.6 0L317.6 0L317.6 50Z" fill="#246b97" stroke="#2f2f2f"></path><path d="M317.6 50L264.7 50L264.7 100Z" fill="#2b79a9" stroke="#2f2f2f"></path><path d="M264.7 300L317.6 350L317.6 300Z" fill="#3287bc" stroke="#2f2f2f"></path><path d="M317.6 300L317.6 350L370.6 350Z" fill="#032a41" stroke="#2f2f2f"></path><path d="M635.3 100L635.3 50L582.4 100Z" fill="#032a41" stroke="#2f2f2f"></path><path d="M635.3 350L635.3 300L582.4 300Z" fill="#3287bc" stroke="#2f2f2f"></path><path d="M264.7 250L264.7 300L317.6 300Z" fill="#1d5d85" stroke="#2f2f2f"></path><path d="M317.6 0L264.7 50L317.6 50Z" fill="#3287bc" stroke="#2f2f2f"></path><path d="M423.5 350L476.5 400L476.5 350Z" fill="#246b97" stroke="#2f2f2f"></path><path d="M476.5 350L476.5 400L529.4 350Z" fill="#0f4362" stroke="#2f2f2f"></path><path d="M529.4 350L529.4 400L582.4 350Z" fill="#1d5d85" stroke="#2f2f2f"></path><path d="M423.5 400L476.5 400L423.5 350Z" fill="#1d5d85" stroke="#2f2f2f"></path><path d="M423.5 400L423.5 350L370.6 350Z" fill="#3287bc" stroke="#2f2f2f"></path><path d="M370.6 400L423.5 400L370.6 350Z" fill="#3287bc" stroke="#2f2f2f"></path><path d="M476.5 400L529.4 400L529.4 350Z" fill="#46b4f6" stroke="#2f2f2f"></path><path d="M582.4 350L635.3 350L582.4 300Z" fill="#165073" stroke="#2f2f2f"></path><path d="M317.6 350L370.6 400L370.6 350Z" fill="#46b4f6" stroke="#2f2f2f"></path><path d="M264.7 150L211.8 200L264.7 200Z" fill="#3896cf" stroke="#2f2f2f"></path><path d="M264.7 200L211.8 200L264.7 250Z" fill="#2b79a9" stroke="#2f2f2f"></path><path d="M264.7 250L211.8 250L264.7 300Z" fill="#246b97" stroke="#2f2f2f"></path><path d="M211.8 150L211.8 200L264.7 150Z" fill="#3287bc" stroke="#2f2f2f"></path><path d="M211.8 150L264.7 150L264.7 100Z" fill="#246b97" stroke="#2f2f2f"></path><path d="M688.2 200L688.2 150L635.3 150Z" fill="#3896cf" stroke="#2f2f2f"></path><path d="M635.3 150L688.2 100L635.3 100Z" fill="#083651" stroke="#2f2f2f"></path><path d="M635.3 100L688.2 50L635.3 50Z" fill="#2b79a9" stroke="#2f2f2f"></path><path d="M688.2 200L635.3 150L635.3 200Z" fill="#3287bc" stroke="#2f2f2f"></path><path d="M688.2 200L635.3 200L688.2 250Z" fill="#3896cf" stroke="#2f2f2f"></path><path d="M688.2 250L635.3 200L635.3 250Z" fill="#032a41" stroke="#2f2f2f"></path><path d="M211.8 100L211.8 150L264.7 100Z" fill="#083651" stroke="#2f2f2f"></path><path d="M688.2 300L688.2 250L635.3 250Z" fill="#246b97" stroke="#2f2f2f"></path><path d="M688.2 300L635.3 250L635.3 300Z" fill="#246b97" stroke="#2f2f2f"></path><path d="M211.8 200L211.8 250L264.7 250Z" fill="#0f4362" stroke="#2f2f2f"></path><path d="M688.2 150L688.2 100L635.3 150Z" fill="#2b79a9" stroke="#2f2f2f"></path><path d="M264.7 50L211.8 100L264.7 100Z" fill="#46b4f6" stroke="#2f2f2f"></path><path d="M635.3 400L635.3 350L582.4 350Z" fill="#2b79a9" stroke="#2f2f2f"></path><path d="M688.2 0L635.3 0L635.3 50Z" fill="#0f4362" stroke="#2f2f2f"></path><path d="M635.3 50L635.3 0L582.4 50Z" fill="#246b97" stroke="#2f2f2f"></path><path d="M264.7 300L264.7 350L317.6 350Z" fill="#3896cf" stroke="#2f2f2f"></path><path d="M317.6 350L317.6 400L370.6 400Z" fill="#3fa5e2" stroke="#2f2f2f"></path><path d="M211.8 300L264.7 350L264.7 300Z" fill="#165073" stroke="#2f2f2f"></path><path d="M317.6 0L264.7 0L264.7 50Z" fill="#032a41" stroke="#2f2f2f"></path><path d="M264.7 50L211.8 50L211.8 100Z" fill="#083651" stroke="#2f2f2f"></path><path d="M529.4 400L582.4 400L582.4 350Z" fill="#032a41" stroke="#2f2f2f"></path><path d="M264.7 350L317.6 400L317.6 350Z" fill="#246b97" stroke="#2f2f2f"></path><path d="M264.7 0L211.8 50L264.7 50Z" fill="#46b4f6" stroke="#2f2f2f"></path><path d="M211.8 250L211.8 300L264.7 300Z" fill="#165073" stroke="#2f2f2f"></path><path d="M688.2 100L688.2 50L635.3 100Z" fill="#083651" stroke="#2f2f2f"></path><path d="M688.2 350L688.2 300L635.3 300Z" fill="#246b97" stroke="#2f2f2f"></path><path d="M423.5 400L476.5 450L476.5 400Z" fill="#165073" stroke="#2f2f2f"></path><path d="M476.5 400L476.5 450L529.4 400Z" fill="#3fa5e2" stroke="#2f2f2f"></path><path d="M529.4 400L529.4 450L582.4 400Z" fill="#2b79a9" stroke="#2f2f2f"></path><path d="M423.5 450L476.5 450L423.5 400Z" fill="#1d5d85" stroke="#2f2f2f"></path><path d="M423.5 450L423.5 400L370.6 400Z" fill="#3287bc" stroke="#2f2f2f"></path><path d="M370.6 450L423.5 450L370.6 400Z" fill="#3287bc" stroke="#2f2f2f"></path><path d="M476.5 450L529.4 450L529.4 400Z" fill="#246b97" stroke="#2f2f2f"></path><path d="M582.4 400L635.3 400L582.4 350Z" fill="#0f4362" stroke="#2f2f2f"></path><path d="M635.3 350L688.2 350L635.3 300Z" fill="#165073" stroke="#2f2f2f"></path><path d="M317.6 400L370.6 450L370.6 400Z" fill="#2b79a9" stroke="#2f2f2f"></path><path d="M635.3 450L635.3 400L582.4 400Z" fill="#3896cf" stroke="#2f2f2f"></path><path d="M211.8 350L264.7 400L264.7 350Z" fill="#083651" stroke="#2f2f2f"></path><path d="M264.7 350L264.7 400L317.6 400Z" fill="#083651" stroke="#2f2f2f"></path><path d="M317.6 400L317.6 450L370.6 450Z" fill="#1d5d85" stroke="#2f2f2f"></path><path d="M741.2 250L741.2 200L688.2 250Z" fill="#083651" stroke="#2f2f2f"></path><path d="M688.2 250L741.2 200L688.2 200Z" fill="#3fa5e2" stroke="#2f2f2f"></path><path d="M688.2 200L741.2 200L688.2 150Z" fill="#2b79a9" stroke="#2f2f2f"></path><path d="M688.2 150L741.2 150L688.2 100Z" fill="#3896cf" stroke="#2f2f2f"></path><path d="M688.2 100L741.2 100L688.2 50Z" fill="#1d5d85" stroke="#2f2f2f"></path><path d="M741.2 200L741.2 150L688.2 150Z" fill="#2b79a9" stroke="#2f2f2f"></path><path d="M211.8 200L158.8 200L211.8 250Z" fill="#246b97" stroke="#2f2f2f"></path><path d="M211.8 250L158.8 250L211.8 300Z" fill="#032a41" stroke="#2f2f2f"></path><path d="M211.8 150L158.8 200L211.8 200Z" fill="#165073" stroke="#2f2f2f"></path><path d="M158.8 150L158.8 200L211.8 150Z" fill="#3896cf" stroke="#2f2f2f"></path><path d="M158.8 150L211.8 150L211.8 100Z" fill="#032a41" stroke="#2f2f2f"></path><path d="M158.8 100L158.8 150L211.8 100Z" fill="#246b97" stroke="#2f2f2f"></path><path d="M741.2 50L688.2 0L688.2 50Z" fill="#165073" stroke="#2f2f2f"></path><path d="M688.2 50L688.2 0L635.3 50Z" fill="#46b4f6" stroke="#2f2f2f"></path><path d="M688.2 400L688.2 350L635.3 350Z" fill="#0f4362" stroke="#2f2f2f"></path><path d="M688.2 300L741.2 250L688.2 250Z" fill="#032a41" stroke="#2f2f2f"></path><path d="M264.7 0L211.8 0L211.8 50Z" fill="#3fa5e2" stroke="#2f2f2f"></path><path d="M211.8 50L158.8 100L211.8 100Z" fill="#2b79a9" stroke="#2f2f2f"></path><path d="M158.8 300L211.8 350L211.8 300Z" fill="#3896cf" stroke="#2f2f2f"></path><path d="M211.8 300L211.8 350L264.7 350Z" fill="#165073" stroke="#2f2f2f"></path><path d="M741.2 150L741.2 100L688.2 100Z" fill="#083651" stroke="#2f2f2f"></path><path d="M741.2 300L741.2 250L688.2 300Z" fill="#3896cf" stroke="#2f2f2f"></path><path d="M158.8 50L158.8 100L211.8 50Z" fill="#083651" stroke="#2f2f2f"></path><path d="M158.8 200L158.8 250L211.8 250Z" fill="#3896cf" stroke="#2f2f2f"></path><path d="M529.4 450L582.4 450L582.4 400Z" fill="#3fa5e2" stroke="#2f2f2f"></path><path d="M264.7 400L317.6 450L317.6 400Z" fill="#3287bc" stroke="#2f2f2f"></path><path d="M741.2 100L741.2 50L688.2 50Z" fill="#0f4362" stroke="#2f2f2f"></path><path d="M688.2 350L741.2 300L688.2 300Z" fill="#2b79a9" stroke="#2f2f2f"></path><path d="M158.8 250L158.8 300L211.8 300Z" fill="#0f4362" stroke="#2f2f2f"></path><path d="M211.8 0L158.8 50L211.8 50Z" fill="#3287bc" stroke="#2f2f2f"></path><path d="M635.3 400L688.2 400L635.3 350Z" fill="#3896cf" stroke="#2f2f2f"></path><path d="M688.2 350L741.2 350L741.2 300Z" fill="#032a41" stroke="#2f2f2f"></path><path d="M688.2 450L688.2 400L635.3 400Z" fill="#246b97" stroke="#2f2f2f"></path><path d="M158.8 350L211.8 400L211.8 350Z" fill="#246b97" stroke="#2f2f2f"></path><path d="M211.8 350L211.8 400L264.7 400Z" fill="#083651" stroke="#2f2f2f"></path><path d="M264.7 400L264.7 450L317.6 450Z" fill="#032a41" stroke="#2f2f2f"></path><path d="M582.4 450L635.3 450L582.4 400Z" fill="#032a41" stroke="#2f2f2f"></path><path d="M211.8 400L264.7 450L264.7 400Z" fill="#3fa5e2" stroke="#2f2f2f"></path><path d="M741.2 50L741.2 0L688.2 0Z" fill="#246b97" stroke="#2f2f2f"></path><path d="M688.2 400L741.2 350L688.2 350Z" fill="#2b79a9" stroke="#2f2f2f"></path><path d="M158.8 300L158.8 350L211.8 350Z" fill="#032a41" stroke="#2f2f2f"></path><path d="M211.8 0L158.8 0L158.8 50Z" fill="#3287bc" stroke="#2f2f2f"></path><path d="M794.1 250L794.1 200L741.2 250Z" fill="#0f4362" stroke="#2f2f2f"></path><path d="M741.2 250L794.1 200L741.2 200Z" fill="#3896cf" stroke="#2f2f2f"></path><path d="M741.2 200L794.1 200L741.2 150Z" fill="#246b97" stroke="#2f2f2f"></path><path d="M741.2 150L794.1 150L741.2 100Z" fill="#165073" stroke="#2f2f2f"></path><path d="M741.2 100L794.1 100L741.2 50Z" fill="#46b4f6" stroke="#2f2f2f"></path><path d="M741.2 50L794.1 50L741.2 0Z" fill="#1d5d85" stroke="#2f2f2f"></path><path d="M794.1 250L741.2 250L741.2 300Z" fill="#1d5d85" stroke="#2f2f2f"></path><path d="M794.1 200L794.1 150L741.2 150Z" fill="#3fa5e2" stroke="#2f2f2f"></path><path d="M105.9 100L105.9 150L158.8 100Z" fill="#246b97" stroke="#2f2f2f"></path><path d="M158.8 100L105.9 150L158.8 150Z" fill="#3287bc" stroke="#2f2f2f"></path><path d="M158.8 150L105.9 150L158.8 200Z" fill="#46b4f6" stroke="#2f2f2f"></path><path d="M158.8 200L105.9 200L158.8 250Z" fill="#246b97" stroke="#2f2f2f"></path><path d="M158.8 250L105.9 250L158.8 300Z" fill="#165073" stroke="#2f2f2f"></path><path d="M158.8 300L105.9 300L158.8 350Z" fill="#3896cf" stroke="#2f2f2f"></path><path d="M105.9 100L158.8 100L158.8 50Z" fill="#083651" stroke="#2f2f2f"></path><path d="M105.9 150L105.9 200L158.8 200Z" fill="#083651" stroke="#2f2f2f"></path><path d="M794.1 150L794.1 100L741.2 100Z" fill="#246b97" stroke="#2f2f2f"></path><path d="M794.1 300L794.1 250L741.2 300Z" fill="#246b97" stroke="#2f2f2f"></path><path d="M105.9 50L105.9 100L158.8 50Z" fill="#083651" stroke="#2f2f2f"></path><path d="M105.9 200L105.9 250L158.8 250Z" fill="#0f4362" stroke="#2f2f2f"></path><path d="M688.2 400L741.2 400L741.2 350Z" fill="#032a41" stroke="#2f2f2f"></path><path d="M635.3 450L688.2 450L635.3 400Z" fill="#165073" stroke="#2f2f2f"></path><path d="M158.8 400L211.8 450L211.8 400Z" fill="#3fa5e2" stroke="#2f2f2f"></path><path d="M211.8 400L211.8 450L264.7 450Z" fill="#3287bc" stroke="#2f2f2f"></path><path d="M741.2 350L794.1 300L741.2 300Z" fill="#083651" stroke="#2f2f2f"></path><path d="M794.1 350L794.1 300L741.2 350Z" fill="#3896cf" stroke="#2f2f2f"></path><path d="M794.1 100L794.1 50L741.2 50Z" fill="#3896cf" stroke="#2f2f2f"></path><path d="M105.9 250L105.9 300L158.8 300Z" fill="#3fa5e2" stroke="#2f2f2f"></path><path d="M158.8 350L158.8 400L211.8 400Z" fill="#0f4362" stroke="#2f2f2f"></path><path d="M158.8 0L105.9 50L158.8 50Z" fill="#1d5d85" stroke="#2f2f2f"></path><path d="M688.2 450L741.2 400L688.2 400Z" fill="#032a41" stroke="#2f2f2f"></path><path d="M105.9 350L158.8 400L158.8 350Z" fill="#2b79a9" stroke="#2f2f2f"></path><path d="M741.2 400L794.1 350L741.2 350Z" fill="#165073" stroke="#2f2f2f"></path><path d="M794.1 50L794.1 0L741.2 0Z" fill="#0f4362" stroke="#2f2f2f"></path><path d="M105.9 300L105.9 350L158.8 350Z" fill="#165073" stroke="#2f2f2f"></path><path d="M158.8 0L105.9 0L105.9 50Z" fill="#083651" stroke="#2f2f2f"></path><path d="M847.1 250L794.1 250L847.1 300Z" fill="#246b97" stroke="#2f2f2f"></path><path d="M847.1 250L794.1 200L794.1 250Z" fill="#165073" stroke="#2f2f2f"></path><path d="M847.1 250L847.1 200L794.1 200Z" fill="#165073" stroke="#2f2f2f"></path><path d="M794.1 200L847.1 150L794.1 150Z" fill="#3fa5e2" stroke="#2f2f2f"></path><path d="M794.1 150L847.1 100L794.1 100Z" fill="#032a41" stroke="#2f2f2f"></path><path d="M794.1 100L847.1 50L794.1 50Z" fill="#0f4362" stroke="#2f2f2f"></path><path d="M794.1 50L847.1 0L794.1 0Z" fill="#246b97" stroke="#2f2f2f"></path><path d="M847.1 200L847.1 150L794.1 200Z" fill="#2b79a9" stroke="#2f2f2f"></path><path d="M52.9 100L105.9 100L105.9 50Z" fill="#246b97" stroke="#2f2f2f"></path><path d="M52.9 100L52.9 150L105.9 100Z" fill="#3fa5e2" stroke="#2f2f2f"></path><path d="M105.9 100L52.9 150L105.9 150Z" fill="#165073" stroke="#2f2f2f"></path><path d="M105.9 150L52.9 150L105.9 200Z" fill="#0f4362" stroke="#2f2f2f"></path><path d="M105.9 200L52.9 200L105.9 250Z" fill="#246b97" stroke="#2f2f2f"></path><path d="M105.9 250L52.9 250L105.9 300Z" fill="#3287bc" stroke="#2f2f2f"></path><path d="M105.9 300L52.9 300L105.9 350Z" fill="#083651" stroke="#2f2f2f"></path><path d="M52.9 150L52.9 200L105.9 200Z" fill="#165073" stroke="#2f2f2f"></path><path d="M741.2 400L794.1 400L794.1 350Z" fill="#2b79a9" stroke="#2f2f2f"></path><path d="M688.2 450L741.2 450L741.2 400Z" fill="#2b79a9" stroke="#2f2f2f"></path><path d="M105.9 400L158.8 450L158.8 400Z" fill="#165073" stroke="#2f2f2f"></path><path d="M158.8 400L158.8 450L211.8 450Z" fill="#1d5d85" stroke="#2f2f2f"></path><path d="M847.1 150L847.1 100L794.1 150Z" fill="#3896cf" stroke="#2f2f2f"></path><path d="M847.1 300L794.1 250L794.1 300Z" fill="#165073" stroke="#2f2f2f"></path><path d="M847.1 300L794.1 300L847.1 350Z" fill="#246b97" stroke="#2f2f2f"></path><path d="M52.9 200L52.9 250L105.9 250Z" fill="#032a41" stroke="#2f2f2f"></path><path d="M52.9 50L52.9 100L105.9 50Z" fill="#3fa5e2" stroke="#2f2f2f"></path><path d="M741.2 450L794.1 400L741.2 400Z" fill="#3fa5e2" stroke="#2f2f2f"></path><path d="M52.9 350L105.9 400L105.9 350Z" fill="#032a41" stroke="#2f2f2f"></path><path d="M105.9 350L105.9 400L158.8 400Z" fill="#2b79a9" stroke="#2f2f2f"></path><path d="M847.1 100L847.1 50L794.1 100Z" fill="#083651" stroke="#2f2f2f"></path><path d="M847.1 350L794.1 300L794.1 350Z" fill="#3896cf" stroke="#2f2f2f"></path><path d="M105.9 0L52.9 50L105.9 50Z" fill="#246b97" stroke="#2f2f2f"></path><path d="M52.9 250L52.9 300L105.9 300Z" fill="#3fa5e2" stroke="#2f2f2f"></path><path d="M847.1 400L794.1 350L794.1 400Z" fill="#032a41" stroke="#2f2f2f"></path><path d="M847.1 400L847.1 350L794.1 350Z" fill="#46b4f6" stroke="#2f2f2f"></path><path d="M847.1 50L847.1 0L794.1 50Z" fill="#46b4f6" stroke="#2f2f2f"></path><path d="M52.9 300L52.9 350L105.9 350Z" fill="#46b4f6" stroke="#2f2f2f"></path><path d="M105.9 0L52.9 0L52.9 50Z" fill="#1d5d85" stroke="#2f2f2f"></path><path d="M741.2 450L794.1 450L794.1 400Z" fill="#1d5d85" stroke="#2f2f2f"></path><path d="M52.9 400L105.9 450L105.9 400Z" fill="#165073" stroke="#2f2f2f"></path><path d="M105.9 400L105.9 450L158.8 450Z" fill="#46b4f6" stroke="#2f2f2f"></path><path d="M0 100L52.9 100L52.9 50Z" fill="#032a41" stroke="#2f2f2f"></path><path d="M0 100L0 150L52.9 100Z" fill="#2b79a9" stroke="#2f2f2f"></path><path d="M52.9 100L0 150L52.9 150Z" fill="#3896cf" stroke="#2f2f2f"></path><path d="M52.9 150L0 150L52.9 200Z" fill="#0f4362" stroke="#2f2f2f"></path><path d="M52.9 200L0 200L52.9 250Z" fill="#0f4362" stroke="#2f2f2f"></path><path d="M52.9 250L0 250L52.9 300Z" fill="#165073" stroke="#2f2f2f"></path><path d="M52.9 300L0 300L52.9 350Z" fill="#1d5d85" stroke="#2f2f2f"></path><path d="M847.1 100L900 50L847.1 50Z" fill="#0f4362" stroke="#2f2f2f"></path><path d="M847.1 50L900 0L847.1 0Z" fill="#165073" stroke="#2f2f2f"></path><path d="M847.1 150L900 100L847.1 100Z" fill="#3896cf" stroke="#2f2f2f"></path><path d="M900 200L900 150L847.1 150Z" fill="#083651" stroke="#2f2f2f"></path><path d="M900 200L847.1 150L847.1 200Z" fill="#3fa5e2" stroke="#2f2f2f"></path><path d="M900 200L847.1 200L900 250Z" fill="#2b79a9" stroke="#2f2f2f"></path><path d="M847.1 200L847.1 250L900 250Z" fill="#3fa5e2" stroke="#2f2f2f"></path><path d="M0 150L0 200L52.9 200Z" fill="#1d5d85" stroke="#2f2f2f"></path><path d="M900 250L847.1 250L900 300Z" fill="#1d5d85" stroke="#2f2f2f"></path><path d="M0 50L0 100L52.9 50Z" fill="#3287bc" stroke="#2f2f2f"></path><path d="M900 150L900 100L847.1 150Z" fill="#083651" stroke="#2f2f2f"></path><path d="M900 300L847.1 250L847.1 300Z" fill="#1d5d85" stroke="#2f2f2f"></path><path d="M0 200L0 250L52.9 250Z" fill="#46b4f6" stroke="#2f2f2f"></path><path d="M847.1 450L847.1 400L794.1 400Z" fill="#3287bc" stroke="#2f2f2f"></path><path d="M900 350L900 300L847.1 300Z" fill="#032a41" stroke="#2f2f2f"></path><path d="M0 350L52.9 400L52.9 350Z" fill="#2b79a9" stroke="#2f2f2f"></path><path d="M52.9 350L52.9 400L105.9 400Z" fill="#246b97" stroke="#2f2f2f"></path><path d="M52.9 0L0 50L52.9 50Z" fill="#083651" stroke="#2f2f2f"></path><path d="M900 100L900 50L847.1 100Z" fill="#2b79a9" stroke="#2f2f2f"></path><path d="M900 350L847.1 300L847.1 350Z" fill="#165073" stroke="#2f2f2f"></path><path d="M0 250L0 300L52.9 300Z" fill="#165073" stroke="#2f2f2f"></path><path d="M52.9 0L0 0L0 50Z" fill="#3fa5e2" stroke="#2f2f2f"></path><path d="M900 400L900 350L847.1 350Z" fill="#3287bc" stroke="#2f2f2f"></path><path d="M0 300L0 350L52.9 350Z" fill="#3fa5e2" stroke="#2f2f2f"></path><path d="M900 50L900 0L847.1 50Z" fill="#3287bc" stroke="#2f2f2f"></path><path d="M794.1 450L847.1 450L794.1 400Z" fill="#165073" stroke="#2f2f2f"></path><path d="M847.1 400L900 400L847.1 350Z" fill="#3fa5e2" stroke="#2f2f2f"></path><path d="M0 400L52.9 450L52.9 400Z" fill="#246b97" stroke="#2f2f2f"></path><path d="M52.9 400L52.9 450L105.9 450Z" fill="#2b79a9" stroke="#2f2f2f"></path><path d="M900 450L900 400L847.1 400Z" fill="#165073" stroke="#2f2f2f"></path><path d="M0 350L0 400L52.9 400Z" fill="#032a41" stroke="#2f2f2f"></path><path d="M0 400L0 450L52.9 450Z" fill="#032a41" stroke="#2f2f2f"></path><path d="M847.1 450L900 450L847.1 400Z" fill="#165073" stroke="#2f2f2f"></path></g></svg>