<svg id="visual" viewBox="0 0 960 960" width="960" height="960" xmlns="http://www.w3.org/2000/svg" xmlns:xlink="http://www.w3.org/1999/xlink" version="1.1"><path d="M0 222L20 231.5C40 241 80 260 120 279.2C160 298.3 200 317.7 240 322.5C280 327.3 320 317.7 360 304.8C400 292 440 276 480 264.8C520 253.7 560 247.3 600 260.2C640 273 680 305 720 305C760 305 800 273 840 253.8C880 234.7 920 228.3 940 225.2L960 222L960 0L940 0C920 0 880 0 840 0C800 0 760 0 720 0C680 0 640 0 600 0C560 0 520 0 480 0C440 0 400 0 360 0C320 0 280 0 240 0C200 0 160 0 120 0C80 0 40 0 20 0L0 0Z" fill="#101010"></path><path d="M0 395L20 398.2C40 401.3 80 407.7 120 418.8C160 430 200 446 240 447.5C280 449 320 436 360 424.8C400 413.7 440 404.3 480 410.8C520 417.3 560 439.7 600 462C640 484.3 680 506.7 720 501.8C760 497 800 465 840 439.3C880 413.7 920 394.3 940 384.7L960 375L960 220L940 223.2C920 226.3 880 232.7 840 251.8C800 271 760 303 720 303C680 303 640 271 600 258.2C560 245.3 520 251.7 480 262.8C440 274 400 290 360 302.8C320 315.7 280 325.3 240 320.5C200 315.7 160 296.3 120 277.2C80 258 40 239 20 229.5L0 220Z" fill="#101417"></path><path d="M0 683L20 678.2C40 673.3 80 663.7 120 652.3C160 641 200 628 240 631.2C280 634.3 320 653.7 360 658.5C400 663.3 440 653.7 480 656.8C520 660 560 676 600 679.2C640 682.3 680 672.7 720 669.5C760 666.3 800 669.7 840 668.2C880 666.7 920 660.3 940 657.2L960 654L960 373L940 382.7C920 392.3 880 411.7 840 437.3C800 463 760 495 720 499.8C680 504.7 640 482.3 600 460C560 437.7 520 415.3 480 408.8C440 402.3 400 411.7 360 422.8C320 434 280 447 240 445.5C200 444 160 428 120 416.8C80 405.7 40 399.3 20 396.2L0 393Z" fill="#10171c"></path><path d="M0 779L20 782.2C40 785.3 80 791.7 120 791.7C160 791.7 200 785.3 240 780.5C280 775.7 320 772.3 360 769C400 765.7 440 762.3 480 764C520 765.7 560 772.3 600 775.7C640 779 680 779 720 774.2C760 769.3 800 759.7 840 764.3C880 769 920 788 940 797.5L960 807L960 652L940 655.2C920 658.3 880 664.7 840 666.2C800 667.7 760 664.3 720 667.5C680 670.7 640 680.3 600 677.2C560 674 520 658 480 654.8C440 651.7 400 661.3 360 656.5C320 651.7 280 632.3 240 629.2C200 626 160 639 120 650.3C80 661.7 40 671.3 20 676.2L0 681Z" fill="#0f1922"></path><path d="M0 875L20 876.5C40 878 80 881 120 874.5C160 868 200 852 240 853.7C280 855.3 320 874.7 360 879.5C400 884.3 440 874.7 480 868.2C520 861.7 560 858.3 600 860C640 861.7 680 868.3 720 870C760 871.7 800 868.3 840 871.5C880 874.7 920 884.3 940 889.2L960 894L960 805L940 795.5C920 786 880 767 840 762.3C800 757.7 760 767.3 720 772.2C680 777 640 777 600 773.7C560 770.3 520 763.7 480 762C440 760.3 400 763.7 360 767C320 770.3 280 773.7 240 778.5C200 783.3 160 789.7 120 789.7C80 789.7 40 783.3 20 780.2L0 777Z" fill="#0d1c27"></path><path d="M0 961L20 961C40 961 80 961 120 961C160 961 200 961 240 961C280 961 320 961 360 961C400 961 440 961 480 961C520 961 560 961 600 961C640 961 680 961 720 961C760 961 800 961 840 961C880 961 920 961 940 961L960 961L960 892L940 887.2C920 882.3 880 872.7 840 869.5C800 866.3 760 869.7 720 868C680 866.3 640 859.7 600 858C560 856.3 520 859.7 480 866.2C440 872.7 400 882.3 360 877.5C320 872.7 280 853.3 240 851.7C200 850 160 866 120 872.5C80 879 40 876 20 874.5L0 873Z" fill="#091f2d"></path></svg>