<svg id="visual" viewBox="0 0 960 960" width="960" height="960" xmlns="http://www.w3.org/2000/svg" xmlns:xlink="http://www.w3.org/1999/xlink" version="1.1"><path d="M0 97L20 106.7C40 116.3 80 135.7 120 154.8C160 174 200 193 240 202.5C280 212 320 212 360 196C400 180 440 148 480 140C520 132 560 148 600 144.8C640 141.7 680 119.3 720 121C760 122.7 800 148.3 840 164.3C880 180.3 920 186.7 940 189.8L960 193L960 0L940 0C920 0 880 0 840 0C800 0 760 0 720 0C680 0 640 0 600 0C560 0 520 0 480 0C440 0 400 0 360 0C320 0 280 0 240 0C200 0 160 0 120 0C80 0 40 0 20 0L0 0Z" fill="#dadada"></path><path d="M0 212L20 216.8C40 221.7 80 231.3 120 245.8C160 260.3 200 279.7 240 292.5C280 305.3 320 311.7 360 298.8C400 286 440 254 480 246C520 238 560 254 600 244.3C640 234.7 680 199.3 720 202.5C760 205.7 800 247.3 840 263.3C880 279.3 920 269.7 940 264.8L960 260L960 191L940 187.8C920 184.7 880 178.3 840 162.3C800 146.3 760 120.7 720 119C680 117.3 640 139.7 600 142.8C560 146 520 130 480 138C440 146 400 178 360 194C320 210 280 210 240 200.5C200 191 160 172 120 152.8C80 133.7 40 114.3 20 104.7L0 95Z" fill="#ccd8e0"></path><path d="M0 558L20 532.3C40 506.7 80 455.3 120 463.3C160 471.3 200 538.7 240 577.2C280 615.7 320 625.3 360 596.5C400 567.7 440 500.3 480 474.7C520 449 560 465 600 457C640 449 680 417 720 423.3C760 429.7 800 474.3 840 480.7C880 487 920 455 940 439L960 423L960 258L940 262.8C920 267.7 880 277.3 840 261.3C800 245.3 760 203.7 720 200.5C680 197.3 640 232.7 600 242.3C560 252 520 236 480 244C440 252 400 284 360 296.8C320 309.7 280 303.3 240 290.5C200 277.7 160 258.3 120 243.8C80 229.3 40 219.7 20 214.8L0 210Z" fill="#bcd5e7"></path><path d="M0 615L20 599C40 583 80 551 120 567C160 583 200 647 240 675.8C280 704.7 320 698.3 360 669.7C400 641 440 590 480 569.2C520 548.3 560 557.7 600 548C640 538.3 680 509.7 720 513C760 516.3 800 551.7 840 564.5C880 577.3 920 567.7 940 562.8L960 558L960 421L940 437C920 453 880 485 840 478.7C800 472.3 760 427.7 720 421.3C680 415 640 447 600 455C560 463 520 447 480 472.7C440 498.3 400 565.7 360 594.5C320 623.3 280 613.7 240 575.2C200 536.7 160 469.3 120 461.3C80 453.3 40 504.7 20 530.3L0 556Z" fill="#abd3ed"></path><path d="M0 807L20 805.5C40 804 80 801 120 810.7C160 820.3 200 842.7 240 857C280 871.3 320 877.7 360 877.7C400 877.7 440 871.3 480 865C520 858.7 560 852.3 600 850.7C640 849 680 852 720 856.8C760 861.7 800 868.3 840 873.2C880 878 920 881 940 882.5L960 884L960 556L940 560.8C920 565.7 880 575.3 840 562.5C800 549.7 760 514.3 720 511C680 507.7 640 536.3 600 546C560 555.7 520 546.3 480 567.2C440 588 400 639 360 667.7C320 696.3 280 702.7 240 673.8C200 645 160 581 120 565C80 549 40 581 20 597L0 613Z" fill="#99d0f3"></path><path d="M0 961L20 961C40 961 80 961 120 961C160 961 200 961 240 961C280 961 320 961 360 961C400 961 440 961 480 961C520 961 560 961 600 961C640 961 680 961 720 961C760 961 800 961 840 961C880 961 920 961 940 961L960 961L960 882L940 880.5C920 879 880 876 840 871.2C800 866.3 760 859.7 720 854.8C680 850 640 847 600 848.7C560 850.3 520 856.7 480 863C440 869.3 400 875.7 360 875.7C320 875.7 280 869.3 240 855C200 840.7 160 818.3 120 808.7C80 799 40 802 20 803.5L0 805Z" fill="#84cdf9"></path></svg>